<?xml version="1.0" encoding="UTF-8" standalone="no"?>
<!-- Created with Inkscape (http://www.inkscape.org/) -->

<svg
   version="1.1"
   id="svg1"
   width="525.44"
   height="400"
   viewBox="0 0 525.44 400"
   xmlns="http://www.w3.org/2000/svg"
   xmlns:svg="http://www.w3.org/2000/svg">
  <defs
     id="defs1">
    <clipPath
       clipPathUnits="userSpaceOnUse"
       id="clipPath2">
      <path
         d="M 0,0 H 1641.6665 V 1247.6666 H 0 Z"
         transform="scale(0.31979698)"
         clip-rule="evenodd"
         id="path2" />
    </clipPath>
    <clipPath
       clipPathUnits="userSpaceOnUse"
       id="clipPath4">
      <path
         d="M 0,0 H 1641.6665 V 1247.6666 H 0 Z"
         transform="scale(0.31979698)"
         clip-rule="evenodd"
         id="path4" />
    </clipPath>
    <clipPath
       clipPathUnits="userSpaceOnUse"
       id="clipPath6">
      <path
         d="M 0,0 H 1641.6665 V 1247.6666 H 0 Z"
         transform="matrix(0.31979698,0,0,0.31979698,-136.17999,0)"
         clip-rule="evenodd"
         id="path6" />
    </clipPath>
    <clipPath
       clipPathUnits="userSpaceOnUse"
       id="clipPath8">
      <path
         d="M 0,0 H 1641.6665 V 1247.6666 H 0 Z"
         transform="matrix(0.31979698,0,0,0.31979698,-197.58,0)"
         clip-rule="evenodd"
         id="path8" />
    </clipPath>
    <clipPath
       clipPathUnits="userSpaceOnUse"
       id="clipPath10">
      <path
         d="M 0,0 H 1641.6665 V 1247.6666 H 0 Z"
         transform="matrix(0.31979698,0,0,0.31979698,-278.74999,0)"
         clip-rule="evenodd"
         id="path10" />
    </clipPath>
    <clipPath
       clipPathUnits="userSpaceOnUse"
       id="clipPath12">
      <path
         d="M 0,0 H 1641.6665 V 1247.6666 H 0 Z"
         transform="matrix(0.31979698,0,0,0.31979698,-340.14999,0)"
         clip-rule="evenodd"
         id="path12" />
    </clipPath>
    <clipPath
       clipPathUnits="userSpaceOnUse"
       id="clipPath14">
      <path
         d="M 0,0 H 1641.6665 V 1247.6666 H 0 Z"
         transform="matrix(0.31979698,0,0,0.31979698,-401.55,0)"
         clip-rule="evenodd"
         id="path14" />
    </clipPath>
    <clipPath
       clipPathUnits="userSpaceOnUse"
       id="clipPath16">
      <path
         d="M 0,0 H 1641.6665 V 1247.6666 H 0 Z"
         transform="matrix(0.31979698,0,0,0.31979698,0,-254.99999)"
         clip-rule="evenodd"
         id="path16" />
    </clipPath>
    <clipPath
       clipPathUnits="userSpaceOnUse"
       id="clipPath18">
      <path
         d="M 0,0 H 1641.6665 V 1247.6666 H 0 Z"
         transform="matrix(0.31979698,0,0,0.31979698,0,-190.00001)"
         clip-rule="evenodd"
         id="path18" />
    </clipPath>
    <clipPath
       clipPathUnits="userSpaceOnUse"
       id="clipPath20">
      <path
         d="M 0,0 H 1641.6665 V 1247.6666 H 0 Z"
         transform="matrix(0.31979698,0,0,0.31979698,0,-125)"
         clip-rule="evenodd"
         id="path20" />
    </clipPath>
    <clipPath
       clipPathUnits="userSpaceOnUse"
       id="clipPath22">
      <path
         d="M 250.15871,187.61903 H 1391.5078 V 1000.6348 H 250.15871 Z"
         transform="matrix(0.31979698,0,0,0.31979698,-80,-59.999999)"
         clip-rule="evenodd"
         id="path22" />
    </clipPath>
    <clipPath
       clipPathUnits="userSpaceOnUse"
       id="clipPath24">
      <path
         d="M 250.15871,187.61903 H 1391.5078 V 1000.6348 H 250.15871 Z"
         transform="matrix(0.31979698,0,0,0.31979698,-125,-124.88)"
         clip-rule="evenodd"
         id="path24" />
    </clipPath>
    <clipPath
       clipPathUnits="userSpaceOnUse"
       id="clipPath26">
      <path
         d="M 250.15871,187.61903 H 1391.5078 V 1000.6348 H 250.15871 Z"
         transform="matrix(0.31979698,0,0,0.31979698,-186.28999,-98.830004)"
         clip-rule="evenodd"
         id="path26" />
    </clipPath>
    <clipPath
       clipPathUnits="userSpaceOnUse"
       id="clipPath28">
      <path
         d="M 250.15871,187.61903 H 1391.5078 V 1000.6348 H 250.15871 Z"
         transform="matrix(0.31979698,0,0,0.31979698,-247.91999,-90.519997)"
         clip-rule="evenodd"
         id="path28" />
    </clipPath>
    <clipPath
       clipPathUnits="userSpaceOnUse"
       id="clipPath30">
      <path
         d="M 250.15871,187.61903 H 1391.5078 V 1000.6348 H 250.15871 Z"
         transform="matrix(0.31979698,0,0,0.31979698,-309.05999,-75.999998)"
         clip-rule="evenodd"
         id="path30" />
    </clipPath>
    <clipPath
       clipPathUnits="userSpaceOnUse"
       id="clipPath32">
      <path
         d="M 250.15871,187.61903 H 1391.5078 V 1000.6348 H 250.15871 Z"
         transform="matrix(0.31979698,0,0,0.31979698,-370.38002,-68.609998)"
         clip-rule="evenodd"
         id="path32" />
    </clipPath>
    <clipPath
       clipPathUnits="userSpaceOnUse"
       id="clipPath34">
      <path
         d="M 250.15871,187.61903 H 1391.5078 V 1000.6348 H 250.15871 Z"
         transform="matrix(0.31979698,0,0,0.31979698,-422.99998,-66.420001)"
         clip-rule="evenodd"
         id="path34" />
    </clipPath>
    <clipPath
       clipPathUnits="userSpaceOnUse"
       id="clipPath36">
      <path
         d="M 250.15871,187.61903 H 1391.5078 V 1000.6348 H 250.15871 Z"
         transform="matrix(0.31979698,0,0,0.31979698,-80,-59.999999)"
         clip-rule="evenodd"
         id="path36" />
    </clipPath>
    <clipPath
       clipPathUnits="userSpaceOnUse"
       id="clipPath38">
      <path
         d="M 250.15871,187.61903 H 1391.5078 V 1000.6348 H 250.15871 Z"
         transform="matrix(0.31979698,0,0,0.31979698,-125,-106.92)"
         clip-rule="evenodd"
         id="path38" />
    </clipPath>
    <clipPath
       clipPathUnits="userSpaceOnUse"
       id="clipPath40">
      <path
         d="M 250.15871,187.61903 H 1391.5078 V 1000.6348 H 250.15871 Z"
         transform="matrix(0.31979698,0,0,0.31979698,-186.28999,-79.590001)"
         clip-rule="evenodd"
         id="path40" />
    </clipPath>
    <clipPath
       clipPathUnits="userSpaceOnUse"
       id="clipPath42">
      <path
         d="M 250.15871,187.61903 H 1391.5078 V 1000.6348 H 250.15871 Z"
         transform="matrix(0.31979698,0,0,0.31979698,-247.91999,-70.360001)"
         clip-rule="evenodd"
         id="path42" />
    </clipPath>
    <clipPath
       clipPathUnits="userSpaceOnUse"
       id="clipPath44">
      <path
         d="M 250.15871,187.61903 H 1391.5078 V 1000.6348 H 250.15871 Z"
         transform="matrix(0.31979698,0,0,0.31979698,-309.05999,-64.790001)"
         clip-rule="evenodd"
         id="path44" />
    </clipPath>
    <clipPath
       clipPathUnits="userSpaceOnUse"
       id="clipPath46">
      <path
         d="M 250.15871,187.61903 H 1391.5078 V 1000.6348 H 250.15871 Z"
         transform="matrix(0.31979698,0,0,0.31979698,-370.38002,-63.880003)"
         clip-rule="evenodd"
         id="path46" />
    </clipPath>
    <clipPath
       clipPathUnits="userSpaceOnUse"
       id="clipPath48">
      <path
         d="M 250.15871,187.61903 H 1391.5078 V 1000.6348 H 250.15871 Z"
         transform="matrix(0.31979698,0,0,0.31979698,-422.99998,-63.050002)"
         clip-rule="evenodd"
         id="path48" />
    </clipPath>
    <clipPath
       clipPathUnits="userSpaceOnUse"
       id="clipPath50">
      <path
         d="M 250.15871,187.61903 H 1391.5078 V 1000.6348 H 250.15871 Z"
         transform="matrix(0.31979698,0,0,0.31979698,-80,-59.999999)"
         clip-rule="evenodd"
         id="path50" />
    </clipPath>
    <clipPath
       clipPathUnits="userSpaceOnUse"
       id="clipPath52">
      <path
         d="M 250.15871,187.61903 H 1391.5078 V 1000.6348 H 250.15871 Z"
         transform="matrix(0.31979698,0,0,0.31979698,-125,-75.740003)"
         clip-rule="evenodd"
         id="path52" />
    </clipPath>
    <clipPath
       clipPathUnits="userSpaceOnUse"
       id="clipPath54">
      <path
         d="M 250.15871,187.61903 H 1391.5078 V 1000.6348 H 250.15871 Z"
         transform="matrix(0.31979698,0,0,0.31979698,-186.28999,-72.969999)"
         clip-rule="evenodd"
         id="path54" />
    </clipPath>
    <clipPath
       clipPathUnits="userSpaceOnUse"
       id="clipPath56">
      <path
         d="M 250.15871,187.61903 H 1391.5078 V 1000.6348 H 250.15871 Z"
         transform="matrix(0.31979698,0,0,0.31979698,-247.91999,-67.7)"
         clip-rule="evenodd"
         id="path56" />
    </clipPath>
    <clipPath
       clipPathUnits="userSpaceOnUse"
       id="clipPath58">
      <path
         d="M 250.15871,187.61903 H 1391.5078 V 1000.6348 H 250.15871 Z"
         transform="matrix(0.31979698,0,0,0.31979698,-309.05999,-67.330002)"
         clip-rule="evenodd"
         id="path58" />
    </clipPath>
    <clipPath
       clipPathUnits="userSpaceOnUse"
       id="clipPath60">
      <path
         d="M 250.15871,187.61903 H 1391.5078 V 1000.6348 H 250.15871 Z"
         transform="matrix(0.31979698,0,0,0.31979698,-370.38002,-64.800001)"
         clip-rule="evenodd"
         id="path60" />
    </clipPath>
    <clipPath
       clipPathUnits="userSpaceOnUse"
       id="clipPath62">
      <path
         d="M 250.15871,187.61903 H 1391.5078 V 1000.6348 H 250.15871 Z"
         transform="matrix(0.31979698,0,0,0.31979698,-422.99998,-65.330001)"
         clip-rule="evenodd"
         id="path62" />
    </clipPath>
    <clipPath
       clipPathUnits="userSpaceOnUse"
       id="clipPath64">
      <path
         d="M 0,0 H 1641.6665 V 1247.6666 H 0 Z"
         transform="matrix(0.31979698,0,0,0.31979698,-115.39386,-336)"
         clip-rule="evenodd"
         id="path64" />
    </clipPath>
    <clipPath
       clipPathUnits="userSpaceOnUse"
       id="clipPath66">
      <path
         d="M 0,0 H 1641.6665 V 1247.6666 H 0 Z"
         transform="matrix(0.31979698,0,0,0.31979698,-176.79386,-336)"
         clip-rule="evenodd"
         id="path66" />
    </clipPath>
    <clipPath
       clipPathUnits="userSpaceOnUse"
       id="clipPath68">
      <path
         d="M 0,0 H 1641.6665 V 1247.6666 H 0 Z"
         transform="matrix(0.31979698,0,0,0.31979698,-257.96385,-336)"
         clip-rule="evenodd"
         id="path68" />
    </clipPath>
    <clipPath
       clipPathUnits="userSpaceOnUse"
       id="clipPath70">
      <path
         d="M 0,0 H 1641.6665 V 1247.6666 H 0 Z"
         transform="matrix(0.31979698,0,0,0.31979698,-330.233,-336)"
         clip-rule="evenodd"
         id="path70" />
    </clipPath>
    <clipPath
       clipPathUnits="userSpaceOnUse"
       id="clipPath72">
      <path
         d="M 0,0 H 1641.6665 V 1247.6666 H 0 Z"
         transform="matrix(0.31979698,0,0,0.31979698,-391.63301,-336)"
         clip-rule="evenodd"
         id="path72" />
    </clipPath>
    <clipPath
       clipPathUnits="userSpaceOnUse"
       id="clipPath74">
      <path
         d="M 0,0 H 1641.6665 V 1247.6666 H 0 Z"
         transform="matrix(0.31979698,0,0,0.31979698,-59.913086,-325.24999)"
         clip-rule="evenodd"
         id="path74" />
    </clipPath>
    <clipPath
       clipPathUnits="userSpaceOnUse"
       id="clipPath76">
      <path
         d="M 0,0 H 1641.6665 V 1247.6666 H 0 Z"
         transform="matrix(0.31979698,0,0,0.31979698,-59.913086,-260.24999)"
         clip-rule="evenodd"
         id="path76" />
    </clipPath>
    <clipPath
       clipPathUnits="userSpaceOnUse"
       id="clipPath78">
      <path
         d="M 0,0 H 1641.6665 V 1247.6666 H 0 Z"
         transform="matrix(0.31979698,0,0,0.31979698,-59.913086,-195.25001)"
         clip-rule="evenodd"
         id="path78" />
    </clipPath>
    <clipPath
       clipPathUnits="userSpaceOnUse"
       id="clipPath80">
      <path
         d="M 0,0 H 1641.6665 V 1247.6666 H 0 Z"
         transform="matrix(0.31979698,0,0,0.31979698,-59.913086,-130.25)"
         clip-rule="evenodd"
         id="path80" />
    </clipPath>
    <clipPath
       clipPathUnits="userSpaceOnUse"
       id="clipPath82">
      <path
         d="M 0,0 H 1641.6665 V 1247.6666 H 0 Z"
         transform="matrix(0.31979698,0,0,0.31979698,-50.369629,-65.249999)"
         clip-rule="evenodd"
         id="path82" />
    </clipPath>
    <clipPath
       clipPathUnits="userSpaceOnUse"
       id="clipPath84">
      <path
         d="M 0,0 H 1641.6665 V 1247.6666 H 0 Z"
         transform="matrix(0.31979698,0,0,0.31979698,-170.36865,-367.10001)"
         clip-rule="evenodd"
         id="path84" />
    </clipPath>
    <clipPath
       clipPathUnits="userSpaceOnUse"
       id="clipPath86">
      <path
         d="M 0,0 H 1641.6665 V 1247.6666 H 0 Z"
         transform="matrix(0,0.31979698,-0.31979698,0,240.50634,-29.559376)"
         clip-rule="evenodd"
         id="path86" />
    </clipPath>
    <clipPath
       clipPathUnits="userSpaceOnUse"
       id="clipPath88">
      <path
         d="M 0,0 H 1641.6665 V 1247.6666 H 0 Z"
         transform="matrix(0.31979698,0,0,0.31979698,-92.000003,-130)"
         clip-rule="evenodd"
         id="path88" />
    </clipPath>
    <clipPath
       clipPathUnits="userSpaceOnUse"
       id="clipPath90">
      <path
         d="M 0,0 H 1641.6665 V 1247.6666 H 0 Z"
         transform="matrix(0.31979698,0,0,0.31979698,-92.000003,-112)"
         clip-rule="evenodd"
         id="path90" />
    </clipPath>
    <clipPath
       clipPathUnits="userSpaceOnUse"
       id="clipPath92">
      <path
         d="M 0,0 H 1641.6665 V 1247.6666 H 0 Z"
         transform="matrix(0.31979698,0,0,0.31979698,-82.003906,-81)"
         clip-rule="evenodd"
         id="path92" />
    </clipPath>
  </defs>
  <g
     id="g1">
    <path
       id="path1"
       d="M 0,0 H 525 V 400 H 0 Z"
       style="fill:#ffffff;fill-opacity:1;fill-rule:nonzero;stroke:none"
       transform="scale(1.0006348)"
       clip-path="url(#clipPath2)" />
    <path
       id="path3"
       d="M 80,60 H 445 V 320 H 80 Z"
       style="fill:#ffffff;fill-opacity:1;fill-rule:nonzero;stroke:none"
       transform="scale(1.0006348)"
       clip-path="url(#clipPath4)" />
    <path
       id="path5"
       d="M 0,60 V 320"
       style="fill:#000000;fill-opacity:1;fill-rule:nonzero;stroke:#ebf0f8;stroke-width:1;stroke-linecap:butt;stroke-linejoin:miter;stroke-miterlimit:10;stroke-dasharray:none;stroke-opacity:1"
       transform="matrix(1.0006348,0,0,1.0006348,136.26644,0)"
       clip-path="url(#clipPath6)" />
    <path
       id="path7"
       d="M 0,60 V 320"
       style="fill:#000000;fill-opacity:1;fill-rule:nonzero;stroke:#ebf0f8;stroke-width:1;stroke-linecap:butt;stroke-linejoin:miter;stroke-miterlimit:10;stroke-dasharray:none;stroke-opacity:1"
       transform="matrix(1.0006348,0,0,1.0006348,197.70542,0)"
       clip-path="url(#clipPath8)" />
    <path
       id="path9"
       d="M 0,60 V 320"
       style="fill:#000000;fill-opacity:1;fill-rule:nonzero;stroke:#ebf0f8;stroke-width:1;stroke-linecap:butt;stroke-linejoin:miter;stroke-miterlimit:10;stroke-dasharray:none;stroke-opacity:1"
       transform="matrix(1.0006348,0,0,1.0006348,278.92694,0)"
       clip-path="url(#clipPath10)" />
    <path
       id="path11"
       d="M 0,60 V 320"
       style="fill:#000000;fill-opacity:1;fill-rule:nonzero;stroke:#ebf0f8;stroke-width:1;stroke-linecap:butt;stroke-linejoin:miter;stroke-miterlimit:10;stroke-dasharray:none;stroke-opacity:1"
       transform="matrix(1.0006348,0,0,1.0006348,340.36592,0)"
       clip-path="url(#clipPath12)" />
    <path
       id="path13"
       d="M 0,60 V 320"
       style="fill:#000000;fill-opacity:1;fill-rule:nonzero;stroke:#ebf0f8;stroke-width:1;stroke-linecap:butt;stroke-linejoin:miter;stroke-miterlimit:10;stroke-dasharray:none;stroke-opacity:1"
       transform="matrix(1.0006348,0,0,1.0006348,401.8049,0)"
       clip-path="url(#clipPath14)" />
    <path
       id="path15"
       d="M 80,0 H 445"
       style="fill:#000000;fill-opacity:1;fill-rule:nonzero;stroke:#ebf0f8;stroke-width:1;stroke-linecap:butt;stroke-linejoin:miter;stroke-miterlimit:10;stroke-dasharray:none;stroke-opacity:1"
       transform="matrix(1.0006348,0,0,1.0006348,0,255.16186)"
       clip-path="url(#clipPath16)" />
    <path
       id="path17"
       d="M 80,0 H 445"
       style="fill:#000000;fill-opacity:1;fill-rule:nonzero;stroke:#ebf0f8;stroke-width:1;stroke-linecap:butt;stroke-linejoin:miter;stroke-miterlimit:10;stroke-dasharray:none;stroke-opacity:1"
       transform="matrix(1.0006348,0,0,1.0006348,0,190.12062)"
       clip-path="url(#clipPath18)" />
    <path
       id="path19"
       d="M 80,0 H 445"
       style="fill:#000000;fill-opacity:1;fill-rule:nonzero;stroke:#ebf0f8;stroke-width:1;stroke-linecap:butt;stroke-linejoin:miter;stroke-miterlimit:10;stroke-dasharray:none;stroke-opacity:1"
       transform="matrix(1.0006348,0,0,1.0006348,0,125.07935)"
       clip-path="url(#clipPath20)" />
    <path
       id="path21"
       d="M 45,64.879997 106.29,38.830002 167.92,30.52 229.06,16 290.38,8.6099997 343,6.4200001"
       style="fill:none;stroke:#f3ad6a;stroke-width:2;stroke-linecap:butt;stroke-linejoin:miter;stroke-miterlimit:10;stroke-dasharray:none;stroke-opacity:1"
       transform="matrix(1.0006348,0,0,1.0006348,80.050784,60.038087)"
       clip-path="url(#clipPath22)" />
    <path
       id="path23"
       d="m 3,0 c -2e-7,0.3978247 -0.076121,0.78050804 -0.2283618,1.1480502 -0.152241,0.3675421 -0.3690136,0.6919654 -0.650318,0.97327 -0.2813046,0.2813044 -0.6057279,0.498077 -0.97327,0.650318 C 0.78050804,2.9238791 0.3978247,2.9999998 0,3 -0.3978247,2.9999998 -0.78050804,2.923879 -1.1480502,2.7716382 -1.5155923,2.6193972 -1.8400156,2.4026246 -2.1213202,2.1213202 -2.4026246,1.8400156 -2.6193972,1.5155923 -2.7716382,1.1480502 -2.9238791,0.78050804 -2.9999998,0.3978247 -3,0 c 2e-7,-0.3978247 0.076121,-0.78050804 0.2283618,-1.1480502 0.152241,-0.3675421 0.3690136,-0.6919654 0.650318,-0.97327 0.2813046,-0.2813044 0.6057279,-0.498077 0.97327,-0.650318 C -0.78050804,-2.9238791 -0.3978247,-2.9999998 0,-3 c 0.3978247,2e-7 0.78050804,0.076121 1.1480502,0.2283618 0.3675421,0.152241 0.6919654,0.3690136 0.97327,0.650318 0.2813044,0.2813046 0.498077,0.6057279 0.650318,0.97327 C 2.9238791,-0.78050804 2.9999998,-0.3978247 3,0 Z"
       style="fill:#f3ad6a;fill-opacity:1;fill-rule:nonzero;stroke:none"
       transform="matrix(1.0006348,0,0,1.0006348,125.07935,124.95927)"
       clip-path="url(#clipPath24)" />
    <path
       id="path25"
       d="m 3,0 c -2e-7,0.3978247 -0.076121,0.78050804 -0.2283618,1.1480502 -0.152241,0.3675421 -0.3690136,0.6919654 -0.650318,0.97327 -0.2813046,0.2813044 -0.6057279,0.498077 -0.97327,0.650318 C 0.78050804,2.9238791 0.3978247,2.9999998 0,3 -0.3978247,2.9999998 -0.78050804,2.923879 -1.1480502,2.7716382 -1.5155923,2.6193972 -1.8400156,2.4026246 -2.1213202,2.1213202 -2.4026246,1.8400156 -2.6193972,1.5155923 -2.7716382,1.1480502 -2.9238791,0.78050804 -2.9999998,0.3978247 -3,0 c 2e-7,-0.3978247 0.076121,-0.78050804 0.2283618,-1.1480502 0.152241,-0.3675421 0.3690136,-0.6919654 0.650318,-0.97327 0.2813046,-0.2813044 0.6057279,-0.498077 0.97327,-0.650318 C -0.78050804,-2.9238791 -0.3978247,-2.9999998 0,-3 c 0.3978247,2e-7 0.78050804,0.076121 1.1480502,0.2283618 0.3675421,0.152241 0.6919654,0.3690136 0.97327,0.650318 0.2813044,0.2813046 0.498077,0.6057279 0.650318,0.97327 C 2.9238791,-0.78050804 2.9999998,-0.3978247 3,0 Z"
       style="fill:#f3ad6a;fill-opacity:1;fill-rule:nonzero;stroke:none"
       transform="matrix(1.0006348,0,0,1.0006348,186.40825,98.892741)"
       clip-path="url(#clipPath26)" />
    <path
       id="path27"
       d="m 3,0 c -2e-7,0.3978247 -0.076121,0.78050804 -0.2283618,1.1480502 -0.152241,0.3675421 -0.3690136,0.6919654 -0.650318,0.97327 -0.2813046,0.2813044 -0.6057279,0.498077 -0.97327,0.650318 C 0.78050804,2.9238791 0.3978247,2.9999998 0,3 -0.3978247,2.9999998 -0.78050804,2.923879 -1.1480502,2.7716382 -1.5155923,2.6193972 -1.8400156,2.4026246 -2.1213202,2.1213202 -2.4026246,1.8400156 -2.6193972,1.5155923 -2.7716382,1.1480502 -2.9238791,0.78050804 -2.9999998,0.3978247 -3,0 c 2e-7,-0.3978247 0.076121,-0.78050804 0.2283618,-1.1480502 0.152241,-0.3675421 0.3690136,-0.6919654 0.650318,-0.97327 0.2813046,-0.2813044 0.6057279,-0.498077 0.97327,-0.650318 C -0.78050804,-2.9238791 -0.3978247,-2.9999998 0,-3 c 0.3978247,2e-7 0.78050804,0.076121 1.1480502,0.2283618 0.3675421,0.152241 0.6919654,0.3690136 0.97327,0.650318 0.2813044,0.2813046 0.498077,0.6057279 0.650318,0.97327 C 2.9238791,-0.78050804 2.9999998,-0.3978247 3,0 Z"
       style="fill:#f3ad6a;fill-opacity:1;fill-rule:nonzero;stroke:none"
       transform="matrix(1.0006348,0,0,1.0006348,248.07737,90.577459)"
       clip-path="url(#clipPath28)" />
    <path
       id="path29"
       d="m 3,0 c -2e-7,0.3978247 -0.076121,0.78050804 -0.2283618,1.1480502 -0.152241,0.3675421 -0.3690136,0.6919654 -0.650318,0.97327 -0.2813046,0.2813044 -0.6057279,0.498077 -0.97327,0.650318 C 0.78050804,2.9238791 0.3978247,2.9999998 0,3 -0.3978247,2.9999998 -0.78050804,2.923879 -1.1480502,2.7716382 -1.5155923,2.6193972 -1.8400156,2.4026246 -2.1213202,2.1213202 -2.4026246,1.8400156 -2.6193972,1.5155923 -2.7716382,1.1480502 -2.9238791,0.78050804 -2.9999998,0.3978247 -3,0 c 2e-7,-0.3978247 0.076121,-0.78050804 0.2283618,-1.1480502 0.152241,-0.3675421 0.3690136,-0.6919654 0.650318,-0.97327 0.2813046,-0.2813044 0.6057279,-0.498077 0.97327,-0.650318 C -0.78050804,-2.9238791 -0.3978247,-2.9999998 0,-3 c 0.3978247,2e-7 0.78050804,0.076121 1.1480502,0.2283618 0.3675421,0.152241 0.6919654,0.3690136 0.97327,0.650318 0.2813044,0.2813046 0.498077,0.6057279 0.650318,0.97327 C 2.9238791,-0.78050804 2.9999998,-0.3978247 3,0 Z"
       style="fill:#f3ad6a;fill-opacity:1;fill-rule:nonzero;stroke:none"
       transform="matrix(1.0006348,0,0,1.0006348,309.25618,76.048243)"
       clip-path="url(#clipPath30)" />
    <path
       id="path31"
       d="m 3,0 c -2e-7,0.3978247 -0.076121,0.78050804 -0.2283618,1.1480502 -0.152241,0.3675421 -0.3690136,0.6919654 -0.650318,0.97327 -0.2813046,0.2813044 -0.6057279,0.498077 -0.97327,0.650318 C 0.78050804,2.9238791 0.3978247,2.9999998 0,3 -0.3978247,2.9999998 -0.78050804,2.923879 -1.1480502,2.7716382 -1.5155923,2.6193972 -1.8400156,2.4026246 -2.1213202,2.1213202 -2.4026246,1.8400156 -2.6193972,1.5155923 -2.7716382,1.1480502 -2.9238791,0.78050804 -2.9999998,0.3978247 -3,0 c 2e-7,-0.3978247 0.076121,-0.78050804 0.2283618,-1.1480502 0.152241,-0.3675421 0.3690136,-0.6919654 0.650318,-0.97327 0.2813046,-0.2813044 0.6057279,-0.498077 0.97327,-0.650318 C -0.78050804,-2.9238791 -0.3978247,-2.9999998 0,-3 c 0.3978247,2e-7 0.78050804,0.076121 1.1480502,0.2283618 0.3675421,0.152241 0.6919654,0.3690136 0.97327,0.650318 0.2813044,0.2813046 0.498077,0.6057279 0.650318,0.97327 C 2.9238791,-0.78050804 2.9999998,-0.3978247 3,0 Z"
       style="fill:#f3ad6a;fill-opacity:1;fill-rule:nonzero;stroke:none"
       transform="matrix(1.0006348,0,0,1.0006348,370.61514,68.653552)"
       clip-path="url(#clipPath32)" />
    <path
       id="path33"
       d="m 3,0 c -2e-7,0.3978247 -0.076121,0.78050804 -0.2283618,1.1480502 -0.152241,0.3675421 -0.3690136,0.6919654 -0.650318,0.97327 -0.2813046,0.2813044 -0.6057279,0.498077 -0.97327,0.650318 C 0.78050804,2.9238791 0.3978247,2.9999998 0,3 -0.3978247,2.9999998 -0.78050804,2.923879 -1.1480502,2.7716382 -1.5155923,2.6193972 -1.8400156,2.4026246 -2.1213202,2.1213202 -2.4026246,1.8400156 -2.6193972,1.5155923 -2.7716382,1.1480502 -2.9238791,0.78050804 -2.9999998,0.3978247 -3,0 c 2e-7,-0.3978247 0.076121,-0.78050804 0.2283618,-1.1480502 0.152241,-0.3675421 0.3690136,-0.6919654 0.650318,-0.97327 0.2813046,-0.2813044 0.6057279,-0.498077 0.97327,-0.650318 C -0.78050804,-2.9238791 -0.3978247,-2.9999998 0,-3 c 0.3978247,2e-7 0.78050804,0.076121 1.1480502,0.2283618 0.3675421,0.152241 0.6919654,0.3690136 0.97327,0.650318 0.2813044,0.2813046 0.498077,0.6057279 0.650318,0.97327 C 2.9238791,-0.78050804 2.9999998,-0.3978247 3,0 Z"
       style="fill:#f3ad6a;fill-opacity:1;fill-rule:nonzero;stroke:none"
       transform="matrix(1.0006348,0,0,1.0006348,423.2685,66.462164)"
       clip-path="url(#clipPath34)" />
    <path
       id="path35"
       d="M 45,46.919998 106.29,19.59 167.92,10.36 229.06,4.79 290.38,3.8800001 343,3.05"
       style="fill:none;stroke:#f97b57;stroke-width:2;stroke-linecap:butt;stroke-linejoin:miter;stroke-miterlimit:10;stroke-dasharray:none;stroke-opacity:1"
       transform="matrix(1.0006348,0,0,1.0006348,80.050784,60.038087)"
       clip-path="url(#clipPath36)" />
    <path
       id="path37"
       d="m 3,0 c -2e-7,0.3978247 -0.076121,0.78050804 -0.2283618,1.1480502 -0.152241,0.3675421 -0.3690136,0.6919654 -0.650318,0.97327 -0.2813046,0.2813044 -0.6057279,0.498077 -0.97327,0.650318 C 0.78050804,2.9238791 0.3978247,2.9999998 0,3 -0.3978247,2.9999998 -0.78050804,2.923879 -1.1480502,2.7716382 -1.5155923,2.6193972 -1.8400156,2.4026246 -2.1213202,2.1213202 -2.4026246,1.8400156 -2.6193972,1.5155923 -2.7716382,1.1480502 -2.9238791,0.78050804 -2.9999998,0.3978247 -3,0 c 2e-7,-0.3978247 0.076121,-0.78050804 0.2283618,-1.1480502 0.152241,-0.3675421 0.3690136,-0.6919654 0.650318,-0.97327 0.2813046,-0.2813044 0.6057279,-0.498077 0.97327,-0.650318 C -0.78050804,-2.9238791 -0.3978247,-2.9999998 0,-3 c 0.3978247,2e-7 0.78050804,0.076121 1.1480502,0.2283618 0.3675421,0.152241 0.6919654,0.3690136 0.97327,0.650318 0.2813044,0.2813046 0.498077,0.6057279 0.650318,0.97327 C 2.9238791,-0.78050804 2.9999998,-0.3978247 3,0 Z"
       style="fill:#f97b57;fill-opacity:1;fill-rule:nonzero;stroke:none"
       transform="matrix(1.0006348,0,0,1.0006348,125.07935,106.98787)"
       clip-path="url(#clipPath38)" />
    <path
       id="path39"
       d="m 3,0 c -2e-7,0.3978247 -0.076121,0.78050804 -0.2283618,1.1480502 -0.152241,0.3675421 -0.3690136,0.6919654 -0.650318,0.97327 -0.2813046,0.2813044 -0.6057279,0.498077 -0.97327,0.650318 C 0.78050804,2.9238791 0.3978247,2.9999998 0,3 -0.3978247,2.9999998 -0.78050804,2.923879 -1.1480502,2.7716382 -1.5155923,2.6193972 -1.8400156,2.4026246 -2.1213202,2.1213202 -2.4026246,1.8400156 -2.6193972,1.5155923 -2.7716382,1.1480502 -2.9238791,0.78050804 -2.9999998,0.3978247 -3,0 c 2e-7,-0.3978247 0.076121,-0.78050804 0.2283618,-1.1480502 0.152241,-0.3675421 0.3690136,-0.6919654 0.650318,-0.97327 0.2813046,-0.2813044 0.6057279,-0.498077 0.97327,-0.650318 C -0.78050804,-2.9238791 -0.3978247,-2.9999998 0,-3 c 0.3978247,2e-7 0.78050804,0.076121 1.1480502,0.2283618 0.3675421,0.152241 0.6919654,0.3690136 0.97327,0.650318 0.2813044,0.2813046 0.498077,0.6057279 0.650318,0.97327 C 2.9238791,-0.78050804 2.9999998,-0.3978247 3,0 Z"
       style="fill:#f97b57;fill-opacity:1;fill-rule:nonzero;stroke:none"
       transform="matrix(1.0006348,0,0,1.0006348,186.40825,79.640525)"
       clip-path="url(#clipPath40)" />
    <path
       id="path41"
       d="m 3,0 c -2e-7,0.3978247 -0.076121,0.78050804 -0.2283618,1.1480502 -0.152241,0.3675421 -0.3690136,0.6919654 -0.650318,0.97327 -0.2813046,0.2813044 -0.6057279,0.498077 -0.97327,0.650318 C 0.78050804,2.9238791 0.3978247,2.9999998 0,3 -0.3978247,2.9999998 -0.78050804,2.923879 -1.1480502,2.7716382 -1.5155923,2.6193972 -1.8400156,2.4026246 -2.1213202,2.1213202 -2.4026246,1.8400156 -2.6193972,1.5155923 -2.7716382,1.1480502 -2.9238791,0.78050804 -2.9999998,0.3978247 -3,0 c 2e-7,-0.3978247 0.076121,-0.78050804 0.2283618,-1.1480502 0.152241,-0.3675421 0.3690136,-0.6919654 0.650318,-0.97327 0.2813046,-0.2813044 0.6057279,-0.498077 0.97327,-0.650318 C -0.78050804,-2.9238791 -0.3978247,-2.9999998 0,-3 c 0.3978247,2e-7 0.78050804,0.076121 1.1480502,0.2283618 0.3675421,0.152241 0.6919654,0.3690136 0.97327,0.650318 0.2813044,0.2813046 0.498077,0.6057279 0.650318,0.97327 C 2.9238791,-0.78050804 2.9999998,-0.3978247 3,0 Z"
       style="fill:#f97b57;fill-opacity:1;fill-rule:nonzero;stroke:none"
       transform="matrix(1.0006348,0,0,1.0006348,248.07737,70.404666)"
       clip-path="url(#clipPath42)" />
    <path
       id="path43"
       d="m 3,0 c -2e-7,0.3978247 -0.076121,0.78050804 -0.2283618,1.1480502 -0.152241,0.3675421 -0.3690136,0.6919654 -0.650318,0.97327 -0.2813046,0.2813044 -0.6057279,0.498077 -0.97327,0.650318 C 0.78050804,2.9238791 0.3978247,2.9999998 0,3 -0.3978247,2.9999998 -0.78050804,2.923879 -1.1480502,2.7716382 -1.5155923,2.6193972 -1.8400156,2.4026246 -2.1213202,2.1213202 -2.4026246,1.8400156 -2.6193972,1.5155923 -2.7716382,1.1480502 -2.9238791,0.78050804 -2.9999998,0.3978247 -3,0 c 2e-7,-0.3978247 0.076121,-0.78050804 0.2283618,-1.1480502 0.152241,-0.3675421 0.3690136,-0.6919654 0.650318,-0.97327 0.2813046,-0.2813044 0.6057279,-0.498077 0.97327,-0.650318 C -0.78050804,-2.9238791 -0.3978247,-2.9999998 0,-3 c 0.3978247,2e-7 0.78050804,0.076121 1.1480502,0.2283618 0.3675421,0.152241 0.6919654,0.3690136 0.97327,0.650318 0.2813044,0.2813046 0.498077,0.6057279 0.650318,0.97327 C 2.9238791,-0.78050804 2.9999998,-0.3978247 3,0 Z"
       style="fill:#f97b57;fill-opacity:1;fill-rule:nonzero;stroke:none"
       transform="matrix(1.0006348,0,0,1.0006348,309.25618,64.83113)"
       clip-path="url(#clipPath44)" />
    <path
       id="path45"
       d="m 3,0 c -2e-7,0.3978247 -0.076121,0.78050804 -0.2283618,1.1480502 -0.152241,0.3675421 -0.3690136,0.6919654 -0.650318,0.97327 -0.2813046,0.2813044 -0.6057279,0.498077 -0.97327,0.650318 C 0.78050804,2.9238791 0.3978247,2.9999998 0,3 -0.3978247,2.9999998 -0.78050804,2.923879 -1.1480502,2.7716382 -1.5155923,2.6193972 -1.8400156,2.4026246 -2.1213202,2.1213202 -2.4026246,1.8400156 -2.6193972,1.5155923 -2.7716382,1.1480502 -2.9238791,0.78050804 -2.9999998,0.3978247 -3,0 c 2e-7,-0.3978247 0.076121,-0.78050804 0.2283618,-1.1480502 0.152241,-0.3675421 0.3690136,-0.6919654 0.650318,-0.97327 0.2813046,-0.2813044 0.6057279,-0.498077 0.97327,-0.650318 C -0.78050804,-2.9238791 -0.3978247,-2.9999998 0,-3 c 0.3978247,2e-7 0.78050804,0.076121 1.1480502,0.2283618 0.3675421,0.152241 0.6919654,0.3690136 0.97327,0.650318 0.2813044,0.2813046 0.498077,0.6057279 0.650318,0.97327 C 2.9238791,-0.78050804 2.9999998,-0.3978247 3,0 Z"
       style="fill:#f97b57;fill-opacity:1;fill-rule:nonzero;stroke:none"
       transform="matrix(1.0006348,0,0,1.0006348,370.61514,63.920554)"
       clip-path="url(#clipPath46)" />
    <path
       id="path47"
       d="m 3,0 c -2e-7,0.3978247 -0.076121,0.78050804 -0.2283618,1.1480502 -0.152241,0.3675421 -0.3690136,0.6919654 -0.650318,0.97327 -0.2813046,0.2813044 -0.6057279,0.498077 -0.97327,0.650318 C 0.78050804,2.9238791 0.3978247,2.9999998 0,3 -0.3978247,2.9999998 -0.78050804,2.923879 -1.1480502,2.7716382 -1.5155923,2.6193972 -1.8400156,2.4026246 -2.1213202,2.1213202 -2.4026246,1.8400156 -2.6193972,1.5155923 -2.7716382,1.1480502 -2.9238791,0.78050804 -2.9999998,0.3978247 -3,0 c 2e-7,-0.3978247 0.076121,-0.78050804 0.2283618,-1.1480502 0.152241,-0.3675421 0.3690136,-0.6919654 0.650318,-0.97327 0.2813046,-0.2813044 0.6057279,-0.498077 0.97327,-0.650318 C -0.78050804,-2.9238791 -0.3978247,-2.9999998 0,-3 c 0.3978247,2e-7 0.78050804,0.076121 1.1480502,0.2283618 0.3675421,0.152241 0.6919654,0.3690136 0.97327,0.650318 0.2813044,0.2813046 0.498077,0.6057279 0.650318,0.97327 C 2.9238791,-0.78050804 2.9999998,-0.3978247 3,0 Z"
       style="fill:#f97b57;fill-opacity:1;fill-rule:nonzero;stroke:none"
       transform="matrix(1.0006348,0,0,1.0006348,423.2685,63.090026)"
       clip-path="url(#clipPath48)" />
    <path
       id="path49"
       d="M 45,15.74 106.29,12.97 167.92,7.6999998 229.06,7.3299999 290.38,4.8000002 343,5.3299999"
       style="fill:none;stroke:#ee4d5a;stroke-width:2;stroke-linecap:butt;stroke-linejoin:miter;stroke-miterlimit:10;stroke-dasharray:none;stroke-opacity:1"
       transform="matrix(1.0006348,0,0,1.0006348,80.050784,60.038087)"
       clip-path="url(#clipPath50)" />
    <path
       id="path51"
       d="m 3,0 c -2e-7,0.3978247 -0.076121,0.78050804 -0.2283618,1.1480502 -0.152241,0.3675421 -0.3690136,0.6919654 -0.650318,0.97327 -0.2813046,0.2813044 -0.6057279,0.498077 -0.97327,0.650318 C 0.78050804,2.9238791 0.3978247,2.9999998 0,3 -0.3978247,2.9999998 -0.78050804,2.923879 -1.1480502,2.7716382 -1.5155923,2.6193972 -1.8400156,2.4026246 -2.1213202,2.1213202 -2.4026246,1.8400156 -2.6193972,1.5155923 -2.7716382,1.1480502 -2.9238791,0.78050804 -2.9999998,0.3978247 -3,0 c 2e-7,-0.3978247 0.076121,-0.78050804 0.2283618,-1.1480502 0.152241,-0.3675421 0.3690136,-0.6919654 0.650318,-0.97327 0.2813046,-0.2813044 0.6057279,-0.498077 0.97327,-0.650318 C -0.78050804,-2.9238791 -0.3978247,-2.9999998 0,-3 c 0.3978247,2e-7 0.78050804,0.076121 1.1480502,0.2283618 0.3675421,0.152241 0.6919654,0.3690136 0.97327,0.650318 0.2813044,0.2813046 0.498077,0.6057279 0.650318,0.97327 C 2.9238791,-0.78050804 2.9999998,-0.3978247 3,0 Z"
       style="fill:#ee4d5a;fill-opacity:1;fill-rule:nonzero;stroke:none"
       transform="matrix(1.0006348,0,0,1.0006348,125.07935,75.788083)"
       clip-path="url(#clipPath52)" />
    <path
       id="path53"
       d="m 3,0 c -2e-7,0.3978247 -0.076121,0.78050804 -0.2283618,1.1480502 -0.152241,0.3675421 -0.3690136,0.6919654 -0.650318,0.97327 -0.2813046,0.2813044 -0.6057279,0.498077 -0.97327,0.650318 C 0.78050804,2.9238791 0.3978247,2.9999998 0,3 -0.3978247,2.9999998 -0.78050804,2.923879 -1.1480502,2.7716382 -1.5155923,2.6193972 -1.8400156,2.4026246 -2.1213202,2.1213202 -2.4026246,1.8400156 -2.6193972,1.5155923 -2.7716382,1.1480502 -2.9238791,0.78050804 -2.9999998,0.3978247 -3,0 c 2e-7,-0.3978247 0.076121,-0.78050804 0.2283618,-1.1480502 0.152241,-0.3675421 0.3690136,-0.6919654 0.650318,-0.97327 0.2813046,-0.2813044 0.6057279,-0.498077 0.97327,-0.650318 C -0.78050804,-2.9238791 -0.3978247,-2.9999998 0,-3 c 0.3978247,2e-7 0.78050804,0.076121 1.1480502,0.2283618 0.3675421,0.152241 0.6919654,0.3690136 0.97327,0.650318 0.2813044,0.2813046 0.498077,0.6057279 0.650318,0.97327 C 2.9238791,-0.78050804 2.9999998,-0.3978247 3,0 Z"
       style="fill:#ee4d5a;fill-opacity:1;fill-rule:nonzero;stroke:none"
       transform="matrix(1.0006348,0,0,1.0006348,186.40825,73.01632)"
       clip-path="url(#clipPath54)" />
    <path
       id="path55"
       d="m 3,0 c -2e-7,0.3978247 -0.076121,0.78050804 -0.2283618,1.1480502 -0.152241,0.3675421 -0.3690136,0.6919654 -0.650318,0.97327 -0.2813046,0.2813044 -0.6057279,0.498077 -0.97327,0.650318 C 0.78050804,2.9238791 0.3978247,2.9999998 0,3 -0.3978247,2.9999998 -0.78050804,2.923879 -1.1480502,2.7716382 -1.5155923,2.6193972 -1.8400156,2.4026246 -2.1213202,2.1213202 -2.4026246,1.8400156 -2.6193972,1.5155923 -2.7716382,1.1480502 -2.9238791,0.78050804 -2.9999998,0.3978247 -3,0 c 2e-7,-0.3978247 0.076121,-0.78050804 0.2283618,-1.1480502 0.152241,-0.3675421 0.3690136,-0.6919654 0.650318,-0.97327 0.2813046,-0.2813044 0.6057279,-0.498077 0.97327,-0.650318 C -0.78050804,-2.9238791 -0.3978247,-2.9999998 0,-3 c 0.3978247,2e-7 0.78050804,0.076121 1.1480502,0.2283618 0.3675421,0.152241 0.6919654,0.3690136 0.97327,0.650318 0.2813044,0.2813046 0.498077,0.6057279 0.650318,0.97327 C 2.9238791,-0.78050804 2.9999998,-0.3978247 3,0 Z"
       style="fill:#ee4d5a;fill-opacity:1;fill-rule:nonzero;stroke:none"
       transform="matrix(1.0006348,0,0,1.0006348,248.07737,67.742976)"
       clip-path="url(#clipPath56)" />
    <path
       id="path57"
       d="m 3,0 c -2e-7,0.3978247 -0.076121,0.78050804 -0.2283618,1.1480502 -0.152241,0.3675421 -0.3690136,0.6919654 -0.650318,0.97327 -0.2813046,0.2813044 -0.6057279,0.498077 -0.97327,0.650318 C 0.78050804,2.9238791 0.3978247,2.9999998 0,3 -0.3978247,2.9999998 -0.78050804,2.923879 -1.1480502,2.7716382 -1.5155923,2.6193972 -1.8400156,2.4026246 -2.1213202,2.1213202 -2.4026246,1.8400156 -2.6193972,1.5155923 -2.7716382,1.1480502 -2.9238791,0.78050804 -2.9999998,0.3978247 -3,0 c 2e-7,-0.3978247 0.076121,-0.78050804 0.2283618,-1.1480502 0.152241,-0.3675421 0.3690136,-0.6919654 0.650318,-0.97327 0.2813046,-0.2813044 0.6057279,-0.498077 0.97327,-0.650318 C -0.78050804,-2.9238791 -0.3978247,-2.9999998 0,-3 c 0.3978247,2e-7 0.78050804,0.076121 1.1480502,0.2283618 0.3675421,0.152241 0.6919654,0.3690136 0.97327,0.650318 0.2813044,0.2813046 0.498077,0.6057279 0.650318,0.97327 C 2.9238791,-0.78050804 2.9999998,-0.3978247 3,0 Z"
       style="fill:#ee4d5a;fill-opacity:1;fill-rule:nonzero;stroke:none"
       transform="matrix(1.0006348,0,0,1.0006348,309.25618,67.372743)"
       clip-path="url(#clipPath58)" />
    <path
       id="path59"
       d="m 3,0 c -2e-7,0.3978247 -0.076121,0.78050804 -0.2283618,1.1480502 -0.152241,0.3675421 -0.3690136,0.6919654 -0.650318,0.97327 -0.2813046,0.2813044 -0.6057279,0.498077 -0.97327,0.650318 C 0.78050804,2.9238791 0.3978247,2.9999998 0,3 -0.3978247,2.9999998 -0.78050804,2.923879 -1.1480502,2.7716382 -1.5155923,2.6193972 -1.8400156,2.4026246 -2.1213202,2.1213202 -2.4026246,1.8400156 -2.6193972,1.5155923 -2.7716382,1.1480502 -2.9238791,0.78050804 -2.9999998,0.3978247 -3,0 c 2e-7,-0.3978247 0.076121,-0.78050804 0.2283618,-1.1480502 0.152241,-0.3675421 0.3690136,-0.6919654 0.650318,-0.97327 0.2813046,-0.2813044 0.6057279,-0.498077 0.97327,-0.650318 C -0.78050804,-2.9238791 -0.3978247,-2.9999998 0,-3 c 0.3978247,2e-7 0.78050804,0.076121 1.1480502,0.2283618 0.3675421,0.152241 0.6919654,0.3690136 0.97327,0.650318 0.2813044,0.2813046 0.498077,0.6057279 0.650318,0.97327 C 2.9238791,-0.78050804 2.9999998,-0.3978247 3,0 Z"
       style="fill:#ee4d5a;fill-opacity:1;fill-rule:nonzero;stroke:none"
       transform="matrix(1.0006348,0,0,1.0006348,370.61514,64.841136)"
       clip-path="url(#clipPath60)" />
    <path
       id="path61"
       d="m 3,0 c -2e-7,0.3978247 -0.076121,0.78050804 -0.2283618,1.1480502 -0.152241,0.3675421 -0.3690136,0.6919654 -0.650318,0.97327 -0.2813046,0.2813044 -0.6057279,0.498077 -0.97327,0.650318 C 0.78050804,2.9238791 0.3978247,2.9999998 0,3 -0.3978247,2.9999998 -0.78050804,2.923879 -1.1480502,2.7716382 -1.5155923,2.6193972 -1.8400156,2.4026246 -2.1213202,2.1213202 -2.4026246,1.8400156 -2.6193972,1.5155923 -2.7716382,1.1480502 -2.9238791,0.78050804 -2.9999998,0.3978247 -3,0 c 2e-7,-0.3978247 0.076121,-0.78050804 0.2283618,-1.1480502 0.152241,-0.3675421 0.3690136,-0.6919654 0.650318,-0.97327 0.2813046,-0.2813044 0.6057279,-0.498077 0.97327,-0.650318 C -0.78050804,-2.9238791 -0.3978247,-2.9999998 0,-3 c 0.3978247,2e-7 0.78050804,0.076121 1.1480502,0.2283618 0.3675421,0.152241 0.6919654,0.3690136 0.97327,0.650318 0.2813044,0.2813046 0.498077,0.6057279 0.650318,0.97327 C 2.9238791,-0.78050804 2.9999998,-0.3978247 3,0 Z"
       style="fill:#ee4d5a;fill-opacity:1;fill-rule:nonzero;stroke:none"
       transform="matrix(1.0006348,0,0,1.0006348,423.2685,65.371472)"
       clip-path="url(#clipPath62)" />
    <path
       id="path63"
       d="M 1.8598334,-1.2476591 H 4.280172 v -8.3384567 l -2.6233347,0.5309129 v -1.3585121 l 2.6077196,-0.530913 h 1.4834333 v 9.6969689 H 8.1683287 V 0.00154785 H 1.8598334 Z M 14.305058,-9.9608779 c -0.761235,0 -1.33509,0.3747621 -1.71766,1.1242863 -0.374762,0.7495242 -0.562143,1.8738104 -0.562143,3.3728588 0,1.4990484 0.187381,2.6311423 0.562143,3.388474 0.38257,0.7495242 0.956425,1.12428631 1.71766,1.12428631 0.769043,0 1.346801,-0.37476211 1.733275,-1.12428631 0.382569,-0.7573317 0.577758,-1.8894256 0.577758,-3.388474 0,-1.4990484 -0.195189,-2.6233346 -0.577758,-3.3728588 -0.386474,-0.7495242 -0.964232,-1.1242863 -1.733275,-1.1242863 z m 0,-1.1711311 c 1.225784,0 2.16269,0.484067 2.810716,1.4522026 0.655834,0.9681355 0.98375,2.3734933 0.98375,4.2160736 0,1.8425804 -0.327916,3.2557458 -0.98375,4.2316887 -0.648026,0.96813546 -1.584932,1.45220317 -2.810716,1.45220317 -1.217977,0 -2.154882,-0.48406771 -2.810716,-1.45220317 -0.648026,-0.9759429 -0.968135,-2.3891083 -0.968135,-4.2316887 0,-1.8425803 0.320109,-3.2479381 0.968135,-4.2160736 0.655834,-0.9681356 1.592739,-1.4522026 2.810716,-1.4522026 z m 9.544722,1.1711311 c -0.761235,0 -1.33509,0.3747621 -1.717659,1.1242863 -0.374762,0.7495242 -0.562143,1.8738104 -0.562143,3.3728588 0,1.4990484 0.187381,2.6311423 0.562143,3.388474 0.382569,0.7495242 0.956424,1.12428631 1.717659,1.12428631 0.769043,0 1.346802,-0.37476211 1.733275,-1.12428631 0.38257,-0.7573317 0.577758,-1.8894256 0.577758,-3.388474 0,-1.4990484 -0.195188,-2.6233346 -0.577758,-3.3728588 -0.386473,-0.7495242 -0.964232,-1.1242863 -1.733275,-1.1242863 z m 0,-1.1711311 c 1.225785,0 2.16269,0.484067 2.810716,1.4522026 0.655834,0.9681355 0.983751,2.3734933 0.983751,4.2160736 0,1.8425804 -0.327917,3.2557458 -0.983751,4.2316887 -0.648026,0.96813546 -1.584931,1.45220317 -2.810716,1.45220317 -1.217977,0 -2.154882,-0.48406771 -2.810715,-1.45220317 -0.648027,-0.9759429 -0.968136,-2.3891083 -0.968136,-4.2316887 0,-1.8425803 0.320109,-3.2479381 0.968136,-4.2160736 0.655833,-0.9681356 1.592738,-1.4522026 2.810715,-1.4522026 z m 6.249939,0.187381 h 2.217342 l 2.779486,7.4483963 2.810716,-7.4483963 H 40.10899 V 0.00154785 H 38.672402 V -9.6017309 l -2.826331,7.4952419 h -1.483433 l -2.826331,-7.4952419 v 9.60327875 h -1.436588 z m 0,0"
       style="fill:#2a3f5f;fill-opacity:1;fill-rule:nonzero;stroke:none"
       aria-label="100M"
       transform="matrix(1.0006348,0,0,1.0006348,115.46711,336.21329)"
       clip-path="url(#clipPath64)" />
    <path
       id="path65"
       d="M 2.873332,-1.2476591 H 8.0419259 V 0.00154785 H 1.093212 V -1.2476591 c 0.5621432,-0.5816621 1.3272825,-1.3624164 2.2954179,-2.3422632 0.9759429,-0.9759429 1.5927389,-1.608354 1.8425803,-1.8894255 0.4684526,-0.530913 0.7963695,-0.975943 0.9837505,-1.3428976 0.1873811,-0.3747621 0.2810716,-0.7378128 0.2810716,-1.0930561 0,-0.581662 -0.2029962,-1.0540184 -0.6089884,-1.4209729 -0.4059923,-0.3630508 -0.9369053,-0.5465281 -1.5927389,-0.5465281 -0.4684527,0 -0.9642317,0.078075 -1.4834334,0.2342263 -0.5113941,0.1561509 -1.0579221,0.4020885 -1.6395841,0.7339091 v -1.4990479 c 0.5933733,-0.238131 1.1477089,-0.4138 1.6708143,-0.530913 0.5192017,-0.124921 0.9915581,-0.187381 1.420973,-0.187381 1.1320938,0 2.0338651,0.288879 2.7014101,0.858829 0.6753525,0.5621435 1.0149807,1.3194752 1.0149807,2.264188 0,0.4489338 -0.085883,0.8744449 -0.2498414,1.2804372 C 7.561762,-6.3303701 7.253364,-5.8580137 6.808334,-5.3075819 6.6912209,-5.1709499 6.3086512,-4.7649576 5.6528176,-4.0896051 4.9969839,-3.4103488 4.0678862,-2.465636 2.873332,-1.2476591 Z M 14.30748,-9.9608779 c -0.761236,0 -1.33509,0.3747621 -1.71766,1.1242863 -0.374762,0.7495242 -0.562143,1.8738104 -0.562143,3.3728588 0,1.4990484 0.187381,2.6311423 0.562143,3.388474 0.38257,0.7495242 0.956424,1.12428631 1.71766,1.12428631 0.769043,0 1.346801,-0.37476211 1.733274,-1.12428631 0.38257,-0.7573317 0.577759,-1.8894256 0.577759,-3.388474 0,-1.4990484 -0.195189,-2.6233346 -0.577759,-3.3728588 -0.386473,-0.7495242 -0.964231,-1.1242863 -1.733274,-1.1242863 z m 0,-1.1711311 c 1.225784,0 2.162689,0.484067 2.810716,1.4522026 0.655833,0.9681355 0.98375,2.3734933 0.98375,4.2160736 0,1.8425804 -0.327917,3.2557458 -0.98375,4.2316887 -0.648027,0.96813546 -1.584932,1.45220317 -2.810716,1.45220317 -1.217977,0 -2.154882,-0.48406771 -2.810716,-1.45220317 -0.648026,-0.9759429 -0.968135,-2.3891083 -0.968135,-4.2316887 0,-1.8425803 0.320109,-3.2479381 0.968135,-4.2160736 0.655834,-0.9681356 1.592739,-1.4522026 2.810716,-1.4522026 z m 9.540818,1.1711311 c -0.761235,0 -1.33509,0.3747621 -1.717659,1.1242863 -0.374763,0.7495242 -0.562144,1.8738104 -0.562144,3.3728588 0,1.4990484 0.187381,2.6311423 0.562144,3.388474 0.382569,0.7495242 0.956424,1.12428631 1.717659,1.12428631 0.769043,0 1.346801,-0.37476211 1.733275,-1.12428631 0.38257,-0.7573317 0.577758,-1.8894256 0.577758,-3.388474 0,-1.4990484 -0.195188,-2.6233346 -0.577758,-3.3728588 -0.386474,-0.7495242 -0.964232,-1.1242863 -1.733275,-1.1242863 z m 0,-1.1711311 c 1.225785,0 2.16269,0.484067 2.810716,1.4522026 0.655834,0.9681355 0.98375,2.3734933 0.98375,4.2160736 0,1.8425804 -0.327916,3.2557458 -0.98375,4.2316887 -0.648026,0.96813546 -1.584931,1.45220317 -2.810716,1.45220317 -1.217977,0 -2.154882,-0.48406771 -2.810716,-1.45220317 -0.648026,-0.9759429 -0.968135,-2.3891083 -0.968135,-4.2316887 0,-1.8425803 0.320109,-3.2479381 0.968135,-4.2160736 0.655834,-0.9681356 1.592739,-1.4522026 2.810716,-1.4522026 z m 6.249939,0.187381 h 2.217342 l 2.779486,7.4483963 2.810716,-7.4483963 h 2.201727 V 0.00154785 H 38.67092 V -9.6017309 l -2.826331,7.4952419 h -1.483433 l -2.826331,-7.4952419 v 9.60327875 h -1.436588 z m 0,0"
       style="fill:#2a3f5f;fill-opacity:1;fill-rule:nonzero;stroke:none"
       aria-label="200M"
       transform="matrix(1.0006348,0,0,1.0006348,176.90609,336.21329)"
       clip-path="url(#clipPath66)" />
    <path
       id="path67"
       d="m 1.6252607,-10.944628 h 5.8088125 v 1.2492065 H 2.9837733 v 2.6857951 c 0.2068999,-0.070268 0.4137998,-0.1249207 0.6246035,-0.1561509 0.2186112,-0.039038 0.4372225,-0.06246 0.6558337,-0.06246 1.2179768,0 2.1783047,0.3357243 2.8887912,0.9993656 0.718294,0.6675449 1.077441,1.57322 1.077441,2.7170252 0,1.1789391 -0.3669546,2.0924217 -1.0930561,2.74825536 -0.7300054,0.65583368 -1.7606011,0.98375051 -3.0917873,0.98375051 -0.4684527,0 -0.9447128,-0.0429415 -1.420973,-0.1249207 C 2.1561737,0.02106671 1.6642984,-0.09214268 1.1568081,-0.24829355 V -1.7473419 c 0.4372224,0.2420338 0.89006,0.4216073 1.3585126,0.546528 0.4684526,0.1171132 0.9681354,0.171766 1.4990484,0.171766 0.8432147,0 1.5068559,-0.222515 1.9987312,-0.6714488 0.4996828,-0.44503 0.7495242,-1.0501146 0.7495242,-1.8113501 0,-0.7573318 -0.2498414,-1.3585126 -0.7495242,-1.7957351 -0.4918753,-0.44503 -1.1555165,-0.6714487 -1.9987312,-0.6714487 -0.3981847,0 -0.7924657,0.046845 -1.1867467,0.1405357 -0.3981847,0.085883 -0.7963694,0.2147075 -1.2023617,0.3903772 z m 12.6794513,0.9837501 c -0.761236,0 -1.33509,0.3747621 -1.71766,1.1242863 -0.374762,0.7495242 -0.562143,1.8738104 -0.562143,3.3728588 0,1.4990484 0.187381,2.6311423 0.562143,3.388474 0.38257,0.7495242 0.956424,1.12428631 1.71766,1.12428631 0.769043,0 1.346801,-0.37476211 1.733274,-1.12428631 0.38257,-0.7573317 0.577759,-1.8894256 0.577759,-3.388474 0,-1.4990484 -0.195189,-2.6233346 -0.577759,-3.3728588 -0.386473,-0.7495242 -0.964231,-1.1242863 -1.733274,-1.1242863 z m 0,-1.1711311 c 1.225784,0 2.162689,0.484067 2.810715,1.4522026 0.655834,0.9681355 0.983751,2.3734933 0.983751,4.2160736 0,1.8425804 -0.327917,3.2557458 -0.983751,4.2316887 -0.648026,0.96813546 -1.584931,1.45220317 -2.810715,1.45220317 -1.217977,0 -2.154882,-0.48406771 -2.810716,-1.45220317 -0.648026,-0.9759429 -0.968135,-2.3891083 -0.968135,-4.2316887 0,-1.8425803 0.320109,-3.2479381 0.968135,-4.2160736 0.655834,-0.9681356 1.592739,-1.4522026 2.810716,-1.4522026 z m 9.544722,1.1711311 c -0.761236,0 -1.33509,0.3747621 -1.71766,1.1242863 -0.374762,0.7495242 -0.562143,1.8738104 -0.562143,3.3728588 0,1.4990484 0.187381,2.6311423 0.562143,3.388474 0.38257,0.7495242 0.956424,1.12428631 1.71766,1.12428631 0.769043,0 1.346801,-0.37476211 1.733275,-1.12428631 0.382569,-0.7573317 0.577758,-1.8894256 0.577758,-3.388474 0,-1.4990484 -0.195189,-2.6233346 -0.577758,-3.3728588 -0.386474,-0.7495242 -0.964232,-1.1242863 -1.733275,-1.1242863 z m 0,-1.1711311 c 1.225784,0 2.16269,0.484067 2.810716,1.4522026 0.655833,0.9681355 0.98375,2.3734933 0.98375,4.2160736 0,1.8425804 -0.327917,3.2557458 -0.98375,4.2316887 -0.648026,0.96813546 -1.584932,1.45220317 -2.810716,1.45220317 -1.217977,0 -2.154882,-0.48406771 -2.810716,-1.45220317 -0.648026,-0.9759429 -0.968135,-2.3891083 -0.968135,-4.2316887 0,-1.8425803 0.320109,-3.2479381 0.968135,-4.2160736 0.655834,-0.9681356 1.592739,-1.4522026 2.810716,-1.4522026 z m 6.249939,0.187381 h 2.217342 l 2.779486,7.4483963 2.810715,-7.4483963 h 2.201728 V 0.00154785 H 38.672056 V -9.6017309 l -2.826331,7.4952419 h -1.483433 l -2.826331,-7.4952419 v 9.60327875 h -1.436588 z m 0,0"
       style="fill:#2a3f5f;fill-opacity:1;fill-rule:nonzero;stroke:none"
       aria-label="500M"
       transform="matrix(1.0006348,0,0,1.0006348,258.12761,336.21329)"
       clip-path="url(#clipPath68)" />
    <path
       id="path69"
       d="M 1.8569682,-1.2476591 H 4.2773067 V -9.5861158 L 1.653972,-9.0552029 v -1.3585121 l 2.6077197,-0.530913 H 5.745125 v 9.6969689 H 8.1654635 V 0.00154785 H 1.8569682 Z M 12.494747,-5.2295064 v 4.0130774 h 2.373493 c 0.800273,0 1.389743,-0.1600546 1.764505,-0.4840677 0.382569,-0.3318206 0.577758,-0.8354072 0.577758,-1.5146635 0,-0.6870638 -0.195189,-1.1906504 -0.577758,-1.5146634 -0.374762,-0.3318207 -0.964232,-0.4996828 -1.764505,-0.4996828 z m 0,-4.4971452 v 3.2947834 h 2.186112 c 0.726101,0 1.268726,-0.1327282 1.623969,-0.4059923 0.351339,-0.2693602 0.530913,-0.6792563 0.530913,-1.2335919 0,-0.5504318 -0.179574,-0.9603278 -0.530913,-1.2335919 -0.355243,-0.2810715 -0.897868,-0.4216073 -1.623969,-0.4216073 z m -1.483434,-1.2179764 h 3.778851 c 1.132094,0 2.002635,0.242033 2.60772,0.718294 0.612892,0.4684522 0.92129,1.1359972 0.92129,1.9987308 0,0.667545 -0.156151,1.1984579 -0.468452,1.5927389 -0.312302,0.3981847 -0.772947,0.6402186 -1.374128,0.7339091 0.726101,0.1561509 1.288245,0.4840677 1.686429,0.9837505 0.405993,0.4996828 0.608989,1.1203825 0.608989,1.8581954 0,0.9798467 -0.335725,1.7332747 -0.999366,2.26418769 -0.655834,0.53091297 -1.600546,0.79636946 -2.826331,0.79636946 h -3.935002 z m 0,0"
       style="fill:#2a3f5f;fill-opacity:1;fill-rule:nonzero;stroke:none"
       aria-label="1B"
       transform="matrix(1.0006348,0,0,1.0006348,330.44263,336.21329)"
       clip-path="url(#clipPath70)" />
    <path
       id="path71"
       d="m 2.8743705,-1.2476591 h 5.168594 V 0.00154785 H 1.0942506 V -1.2476591 c 0.5621431,-0.5816621 1.3272824,-1.3624164 2.2954178,-2.3422632 0.975943,-0.9759429 1.5927389,-1.608354 1.8425803,-1.8894255 0.4684527,-0.530913 0.7963695,-0.975943 0.9837506,-1.3428976 0.187381,-0.3747621 0.2810715,-0.7378128 0.2810715,-1.0930561 0,-0.581662 -0.2029961,-1.0540184 -0.6089884,-1.4209729 -0.4059923,-0.3630508 -0.9369052,-0.5465281 -1.5927389,-0.5465281 -0.4684526,0 -0.9642316,0.078075 -1.4834333,0.2342263 -0.5113941,0.1561509 -1.0579222,0.4020885 -1.6395842,0.7339091 v -1.4990479 c 0.5933733,-0.238131 1.1477089,-0.4138 1.6708144,-0.530913 0.5192016,-0.124921 0.991558,-0.187381 1.4209729,-0.187381 1.1320939,0 2.0338652,0.288879 2.7014102,0.858829 0.6753525,0.5621435 1.0149806,1.3194752 1.0149806,2.264188 0,0.4489338 -0.085883,0.8744449 -0.2498414,1.2804372 -0.1678622,0.3981847 -0.4762601,0.8705411 -0.9212901,1.4209729 -0.1171132,0.136632 -0.4996828,0.5426243 -1.1555165,1.2179768 -0.6558337,0.6792563 -1.5849314,1.6239691 -2.7794856,2.841946 z m 9.6188935,-3.9818473 v 4.0130774 h 2.373494 c 0.800273,0 1.389742,-0.1600546 1.764505,-0.4840677 0.382569,-0.3318206 0.577758,-0.8354072 0.577758,-1.5146635 0,-0.6870638 -0.195189,-1.1906504 -0.577758,-1.5146634 -0.374763,-0.3318207 -0.964232,-0.4996828 -1.764505,-0.4996828 z m 0,-4.4971452 v 3.2947834 h 2.186113 c 0.726101,0 1.268726,-0.1327282 1.623969,-0.4059923 0.351339,-0.2693602 0.530913,-0.6792563 0.530913,-1.2335919 0,-0.5504318 -0.179574,-0.9603278 -0.530913,-1.2335919 -0.355243,-0.2810715 -0.897868,-0.4216073 -1.623969,-0.4216073 z m -1.483433,-1.2179764 h 3.778851 c 1.132094,0 2.002635,0.242033 2.60772,0.718294 0.612892,0.4684522 0.92129,1.1359972 0.92129,1.9987308 0,0.667545 -0.156151,1.1984579 -0.468453,1.5927389 -0.312301,0.3981847 -0.772946,0.6402186 -1.374127,0.7339091 0.726101,0.1561509 1.288244,0.4840677 1.686429,0.9837505 0.405992,0.4996828 0.608989,1.1203825 0.608989,1.8581954 0,0.9798467 -0.335725,1.7332747 -0.999366,2.26418769 -0.655834,0.53091297 -1.600546,0.79636946 -2.826331,0.79636946 h -3.935002 z m 0,0"
       style="fill:#2a3f5f;fill-opacity:1;fill-rule:nonzero;stroke:none"
       aria-label="2B"
       transform="matrix(1.0006348,0,0,1.0006348,391.88162,336.21329)"
       clip-path="url(#clipPath72)" />
    <path
       id="path73"
       d="m 4.7607024,-5.1992582 c -0.6987751,0 -1.249207,0.1951886 -1.6551992,0.5777582 -0.4059923,0.3747621 -0.6089885,0.89006 -0.6089885,1.5458937 0,0.6558336 0.2029962,1.1789391 0.6089885,1.5615087 0.4059922,0.3747621 0.9564241,0.56214317 1.6551992,0.56214317 0.7065827,0 1.2648221,-0.18738107 1.6708144,-0.56214317 0.4059923,-0.3825696 0.6089884,-0.9056751 0.6089884,-1.5615087 0,-0.6558337 -0.2029961,-1.1711316 -0.6089884,-1.5458937 C 6.033332,-5.0040696 5.4789964,-5.1992582 4.7607024,-5.1992582 Z M 3.2928842,-5.8238617 c -0.6363148,-0.1561509 -1.1320938,-0.4528376 -1.4834333,-0.89006 -0.3552432,-0.4372224 -0.530913,-0.9681354 -0.530913,-1.5927389 0,-0.8744449 0.3044942,-1.5615088 0.9212902,-2.0611914 0.6246035,-0.507491 1.4756257,-0.765139 2.5608743,-0.765139 1.0930561,0 1.9440784,0.257648 2.5608744,0.765139 0.6246035,0.4996826 0.9369052,1.1867465 0.9369052,2.0611914 0,0.6246035 -0.1795735,1.1555165 -0.530913,1.5927389 -0.3552432,0.4372224 -0.8432147,0.7339091 -1.4678182,0.89006 0.7065827,0.1678622 1.2570146,0.495779 1.6551993,0.9837505 0.4059923,0.4801639 0.6089884,1.0696335 0.6089884,1.7645049 0,1.0618259 -0.3279168,1.881618 -0.9837505,2.4515687 -0.6480261,0.56214315 -1.5732201,0.84321472 -2.7794856,0.84321472 -1.1984579,0 -2.1236519,-0.28107157 -2.7794855,-0.84321472 -0.6480262,-0.5699507 -0.9681355,-1.3897428 -0.9681355,-2.4515687 0,-0.6948714 0.1951886,-1.284341 0.5933734,-1.7645049 0.4059922,-0.4879715 0.9681354,-0.8158883 1.6864294,-0.9837505 z M 2.7463561,-8.1661248 c 0,0.5738544 0.1756698,1.0227882 0.530913,1.3428975 0.3513395,0.3123017 0.8471185,0.4684526 1.4834333,0.4684526 0.6324111,0 1.1281901,-0.1561509 1.4834333,-0.4684526 0.3630508,-0.3201093 0.5465281,-0.7690431 0.5465281,-1.3428975 0,-0.5621432 -0.1834773,-0.9993656 -0.5465281,-1.3116674 -0.3552432,-0.3201093 -0.8510222,-0.4840677 -1.4834333,-0.4840677 -0.6363148,0 -1.1320938,0.1639584 -1.4834333,0.4840677 -0.3552432,0.3123018 -0.530913,0.7495242 -0.530913,1.3116674 z M 14.305425,-9.9618599 c -0.761236,0 -1.33509,0.3747621 -1.71766,1.1242863 -0.374762,0.7495242 -0.562143,1.8738105 -0.562143,3.3728589 0,1.4990484 0.187381,2.6311422 0.562143,3.388474 0.38257,0.7495242 0.956424,1.12428627 1.71766,1.12428627 0.769043,0 1.346801,-0.37476207 1.733274,-1.12428627 0.38257,-0.7573318 0.577759,-1.8894256 0.577759,-3.388474 0,-1.4990484 -0.195189,-2.6233347 -0.577759,-3.3728589 -0.386473,-0.7495242 -0.964231,-1.1242863 -1.733274,-1.1242863 z m 0,-1.1711311 c 1.225784,0 2.162689,0.484067 2.810715,1.4522027 0.655834,0.9681354 0.983751,2.3734933 0.983751,4.2160736 0,1.8425803 -0.327917,3.2557457 -0.983751,4.2316887 -0.648026,0.96813541 -1.584931,1.45220312 -2.810715,1.45220312 -1.217977,0 -2.154882,-0.48406771 -2.810716,-1.45220312 -0.648026,-0.975943 -0.968136,-2.3891084 -0.968136,-4.2316887 0,-1.8425803 0.32011,-3.2479382 0.968136,-4.2160736 0.655834,-0.9681357 1.592739,-1.4522027 2.810716,-1.4522027 z m 0,0"
       style="fill:#2a3f5f;fill-opacity:1;fill-rule:nonzero;stroke:none"
       aria-label="80"
       transform="matrix(1.0006348,0,0,1.0006348,59.951119,325.45646)"
       clip-path="url(#clipPath74)" />
    <path
       id="path75"
       d="m 4.7607024,-5.2009582 c -0.6987751,0 -1.249207,0.1951886 -1.6551992,0.5777582 -0.4059923,0.3747621 -0.6089885,0.89006 -0.6089885,1.5458937 0,0.6558337 0.2029962,1.1789391 0.6089885,1.5615087 0.4059922,0.3747621 0.9564241,0.56214318 1.6551992,0.56214318 0.7065827,0 1.2648221,-0.18738108 1.6708144,-0.56214318 0.4059923,-0.3825696 0.6089884,-0.905675 0.6089884,-1.5615087 0,-0.6558337 -0.2029961,-1.1711316 -0.6089884,-1.5458937 C 6.033332,-5.0057696 5.4789964,-5.2009582 4.7607024,-5.2009582 Z M 3.2928842,-5.8255617 c -0.6363148,-0.1561509 -1.1320938,-0.4528375 -1.4834333,-0.89006 -0.3552432,-0.4372224 -0.530913,-0.9681354 -0.530913,-1.5927389 0,-0.8744449 0.3044942,-1.5615087 0.9212902,-2.0611914 0.6246035,-0.50749 1.4756257,-0.765139 2.5608743,-0.765139 1.0930561,0 1.9440784,0.257649 2.5608744,0.765139 0.6246035,0.4996827 0.9369052,1.1867465 0.9369052,2.0611914 0,0.6246035 -0.1795735,1.1555165 -0.530913,1.5927389 -0.3552432,0.4372225 -0.8432147,0.7339091 -1.4678182,0.89006 0.7065827,0.1678622 1.2570146,0.495779 1.6551993,0.9837505 0.4059923,0.4801639 0.6089884,1.0696335 0.6089884,1.7645049 0,1.0618259 -0.3279168,1.881618 -0.9837505,2.45156872 -0.6480261,0.56214315 -1.5732201,0.84321472 -2.7794856,0.84321472 -1.1984579,0 -2.1236519,-0.28107157 -2.7794855,-0.84321472 C 1.3331907,-1.1956883 1.0130814,-2.0154804 1.0130814,-3.0773063 c 0,-0.6948714 0.1951886,-1.284341 0.5933734,-1.7645049 0.4059922,-0.4879715 0.9681354,-0.8158883 1.6864294,-0.9837505 z M 2.7463561,-8.1678248 c 0,0.5738544 0.1756698,1.0227882 0.530913,1.3428975 0.3513395,0.3123018 0.8471185,0.4684526 1.4834333,0.4684526 0.6324111,0 1.1281901,-0.1561508 1.4834333,-0.4684526 0.3630508,-0.3201093 0.5465281,-0.7690431 0.5465281,-1.3428975 0,-0.5621432 -0.1834773,-0.9993656 -0.5465281,-1.3116674 -0.3552432,-0.3201093 -0.8510222,-0.4840677 -1.4834333,-0.4840677 -0.6363148,0 -1.1320938,0.1639584 -1.4834333,0.4840677 -0.3552432,0.3123018 -0.530913,0.7495242 -0.530913,1.3116674 z M 11.166792,-10.94731 h 5.808813 v 1.2492066 h -4.4503 v 2.6857951 c 0.2069,-0.070268 0.413799,-0.1249207 0.624603,-0.1561509 0.218611,-0.039038 0.437223,-0.06246 0.655834,-0.06246 1.217977,0 2.178305,0.3357244 2.888791,0.9993656 0.718294,0.667545 1.077441,1.5732201 1.077441,2.7170252 0,1.1789391 -0.366955,2.0924218 -1.093056,2.74825543 -0.730005,0.65583368 -1.760601,0.98375051 -3.091787,0.98375051 -0.468453,0 -0.944713,-0.0429415 -1.420973,-0.1249207 C 11.697705,0.01838478 11.20583,-0.09482461 10.698339,-0.25097548 V -1.7500239 c 0.437223,0.2420339 0.89006,0.4216074 1.358513,0.5465281 0.468453,0.1171131 0.968135,0.1717659 1.499048,0.1717659 0.843215,0 1.506856,-0.2225149 1.998732,-0.6714487 0.499682,-0.44503 0.749524,-1.0501146 0.749524,-1.8113502 0,-0.7573317 -0.249842,-1.3585126 -0.749524,-1.795735 -0.491876,-0.44503 -1.155517,-0.6714488 -1.998732,-0.6714488 -0.398184,0 -0.792465,0.046845 -1.186746,0.1405358 -0.398185,0.085883 -0.79637,0.2147075 -1.202362,0.3903772 z m 0,0"
       style="fill:#2a3f5f;fill-opacity:1;fill-rule:nonzero;stroke:none"
       aria-label="85"
       transform="matrix(1.0006348,0,0,1.0006348,59.951119,260.4152)"
       clip-path="url(#clipPath76)" />
    <path
       id="path77"
       d="M 1.6533,-0.23317579 V -1.5760733 c 0.3630508,0.1795735 0.7339091,0.3123017 1.1086712,0.4059923 0.3825697,0.09369 0.7651393,0.1405358 1.1399014,0.1405358 0.9681354,0 1.7059483,-0.3279169 2.2173424,-0.9837506 0.5192017,-0.6558336 0.8197921,-1.6551992 0.9056751,-2.9980967 -0.2927829,0.4177035 -0.6558337,0.7417166 -1.0930561,0.9681354 -0.4294149,0.2303225 -0.9056751,0.3435319 -1.4365881,0.3435319 -1.0930561,0 -1.9596934,-0.3318206 -2.5921045,-0.9993656 C 1.2668266,-5.362732 0.95062108,-6.2684071 0.95062108,-7.416116 c 0,-1.1242863 0.32791682,-2.0221538 0.98375052,-2.70141 0.6636412,-0.675353 1.5497974,-1.014981 2.6545649,-1.014981 1.2687258,0 2.2368612,0.484068 2.9044062,1.4522033 0.6636412,0.9681354 0.9993656,2.3734933 0.9993656,4.2160736 0,1.729371 -0.4137998,3.1074024 -1.2335919,4.1379982 -0.8119845,1.03059576 -1.9128482,1.54589365 -3.2947834,1.54589365 -0.3747621,0 -0.7573318,-0.0390377 -1.1399014,-0.10930562 C 2.4496695,0.03618447 2.0592923,-0.07702492 1.6533,-0.23317579 Z M 4.5889365,-4.8708568 c 0.6636412,0 1.1906504,-0.222515 1.5771238,-0.6714487 0.3942809,-0.4567413 0.5933733,-1.0813448 0.5933733,-1.8738105 0,-0.7807544 -0.1990924,-1.3975503 -0.5933733,-1.8581954 -0.3864734,-0.4567413 -0.9134826,-0.6870639 -1.5771238,-0.6870639 -0.667545,0 -1.1945542,0.2303226 -1.5771239,0.6870639 -0.3864734,0.4606451 -0.5777582,1.077441 -0.5777582,1.8581954 0,0.7924657 0.1912848,1.4170692 0.5777582,1.8738105 0.3825697,0.4489337 0.9095789,0.6714487 1.5771239,0.6714487 z m 9.7164885,-5.0905185 c -0.761236,0 -1.33509,0.3747621 -1.71766,1.1242863 -0.374762,0.7495242 -0.562143,1.8738105 -0.562143,3.3728589 0,1.4990484 0.187381,2.6311423 0.562143,3.388474 0.38257,0.7495242 0.956424,1.12428629 1.71766,1.12428629 0.769043,0 1.346801,-0.37476209 1.733274,-1.12428629 0.38257,-0.7573317 0.577759,-1.8894256 0.577759,-3.388474 0,-1.4990484 -0.195189,-2.6233347 -0.577759,-3.3728589 -0.386473,-0.7495242 -0.964231,-1.1242863 -1.733274,-1.1242863 z m 0,-1.1711317 c 1.225784,0 2.162689,0.484068 2.810715,1.4522033 0.655834,0.9681354 0.983751,2.3734933 0.983751,4.2160736 0,1.8425803 -0.327917,3.2557457 -0.983751,4.2316887 -0.648026,0.96813544 -1.584931,1.45220315 -2.810715,1.45220315 -1.217977,0 -2.154882,-0.48406771 -2.810716,-1.45220315 -0.648026,-0.975943 -0.968136,-2.3891084 -0.968136,-4.2316887 0,-1.8425803 0.32011,-3.2479382 0.968136,-4.2160736 0.655834,-0.9681353 1.592739,-1.4522033 2.810716,-1.4522033 z m 0,0"
       style="fill:#2a3f5f;fill-opacity:1;fill-rule:nonzero;stroke:none"
       aria-label="90"
       transform="matrix(1.0006348,0,0,1.0006348,59.951119,195.37395)"
       clip-path="url(#clipPath78)" />
    <path
       id="path79"
       d="M 1.6533,-0.23487897 V -1.5777765 c 0.3630508,0.1795735 0.7339091,0.3123018 1.1086712,0.4059923 0.3825697,0.093691 0.7651393,0.1405358 1.1399014,0.1405358 0.9681354,0 1.7059483,-0.3279169 2.2173424,-0.9837505 0.5192017,-0.6558337 0.8197921,-1.6551993 0.9056751,-2.9980968 -0.2927829,0.4177036 -0.6558337,0.7417166 -1.0930561,0.9681354 -0.4294149,0.2303225 -0.9056751,0.3435319 -1.4365881,0.3435319 -1.0930561,0 -1.9596934,-0.3318206 -2.5921045,-0.9993656 -0.6363148,-0.6636412 -0.95252032,-1.5693163 -0.95252032,-2.7170252 0,-1.1242863 0.32791682,-2.0221538 0.98375052,-2.7014098 0.6636412,-0.675353 1.5497974,-1.014981 2.6545649,-1.014981 1.2687258,0 2.2368612,0.484068 2.9044062,1.4522031 0.6636412,0.9681354 0.9993656,2.3734933 0.9993656,4.2160736 0,1.729371 -0.4137998,3.1074024 -1.2335919,4.1379982 -0.8119845,1.03059578 -1.9128482,1.54589367 -3.2947834,1.54589367 -0.3747621,0 -0.7573318,-0.0390377 -1.1399014,-0.10930562 C 2.4496695,0.03448129 2.0592923,-0.07872809 1.6533,-0.23487897 Z M 4.5889365,-4.8725599 c 0.6636412,0 1.1906504,-0.222515 1.5771238,-0.6714488 0.3942809,-0.4567413 0.5933733,-1.0813448 0.5933733,-1.8738105 0,-0.7807544 -0.1990924,-1.3975503 -0.5933733,-1.8581954 -0.3864734,-0.4567413 -0.9134826,-0.6870638 -1.5771238,-0.6870638 -0.667545,0 -1.1945542,0.2303225 -1.5771239,0.6870638 -0.3864734,0.4606451 -0.5777582,1.077441 -0.5777582,1.8581954 0,0.7924657 0.1912848,1.4170692 0.5777582,1.8738105 0.3825697,0.4489338 0.9095789,0.6714488 1.5771239,0.6714488 z m 6.5778555,-6.0742691 h 5.808813 v 1.249207 h -4.4503 v 2.6857951 c 0.2069,-0.070268 0.413799,-0.1249207 0.624603,-0.1561509 0.218611,-0.039038 0.437223,-0.06246 0.655834,-0.06246 1.217977,0 2.178305,0.3357243 2.888791,0.9993656 0.718294,0.6675449 1.077441,1.57322 1.077441,2.7170252 0,1.1789391 -0.366955,2.0924217 -1.093056,2.74825536 -0.730005,0.65583367 -1.760601,0.98375051 -3.091787,0.98375051 -0.468453,0 -0.944713,-0.0429415 -1.420973,-0.1249207 C 11.697705,0.0188662 11.20583,-0.09434318 10.698339,-0.25049406 V -1.7495425 c 0.437223,0.2420339 0.89006,0.4216074 1.358513,0.5465281 0.468453,0.1171132 0.968135,0.171766 1.499048,0.171766 0.843215,0 1.506856,-0.222515 1.998732,-0.6714488 0.499682,-0.44503 0.749524,-1.0501146 0.749524,-1.8113501 0,-0.7573318 -0.249842,-1.3585126 -0.749524,-1.7957351 -0.491876,-0.44503 -1.155517,-0.6714487 -1.998732,-0.6714487 -0.398184,0 -0.792465,0.046845 -1.186746,0.1405357 -0.398185,0.085883 -0.79637,0.2147075 -1.202362,0.3903772 z m 0,0"
       style="fill:#2a3f5f;fill-opacity:1;fill-rule:nonzero;stroke:none"
       aria-label="95"
       transform="matrix(1.0006348,0,0,1.0006348,59.951119,130.33268)"
       clip-path="url(#clipPath80)" />
    <path
       id="path81"
       d="m 1.8589347,-1.2476591 h 2.4203386 v -8.3384567 l -2.6233347,0.530913 v -1.3585122 l 2.6077196,-0.530913 h 1.4834333 v 9.6969689 H 8.1674301 V 0.00154794 H 1.8589347 Z M 14.304159,-9.9608779 c -0.761235,0 -1.33509,0.3747621 -1.717659,1.1242863 -0.374762,0.7495242 -0.562143,1.8738105 -0.562143,3.3728589 0,1.4990484 0.187381,2.6311423 0.562143,3.388474 0.382569,0.7495242 0.956424,1.1242863 1.717659,1.1242863 0.769043,0 1.346802,-0.3747621 1.733275,-1.1242863 0.38257,-0.7573317 0.577758,-1.8894256 0.577758,-3.388474 0,-1.4990484 -0.195188,-2.6233347 -0.577758,-3.3728589 -0.386473,-0.7495242 -0.964232,-1.1242863 -1.733275,-1.1242863 z m 0,-1.1711311 c 1.225785,0 2.16269,0.484067 2.810716,1.4522027 0.655834,0.9681354 0.983751,2.3734933 0.983751,4.2160736 0,1.8425803 -0.327917,3.2557458 -0.983751,4.2316887 -0.648026,0.96813545 -1.584931,1.45220316 -2.810716,1.45220316 -1.217976,0 -2.154882,-0.48406771 -2.810715,-1.45220316 -0.648026,-0.9759429 -0.968136,-2.3891084 -0.968136,-4.2316887 0,-1.8425803 0.32011,-3.2479382 0.968136,-4.2160736 0.655833,-0.9681357 1.592739,-1.4522027 2.810715,-1.4522027 z m 9.544723,1.1711311 c -0.761236,0 -1.33509,0.3747621 -1.71766,1.1242863 -0.374762,0.7495242 -0.562143,1.8738105 -0.562143,3.3728589 0,1.4990484 0.187381,2.6311423 0.562143,3.388474 0.38257,0.7495242 0.956424,1.1242863 1.71766,1.1242863 0.769043,0 1.346801,-0.3747621 1.733274,-1.1242863 0.38257,-0.7573317 0.577759,-1.8894256 0.577759,-3.388474 0,-1.4990484 -0.195189,-2.6233347 -0.577759,-3.3728589 -0.386473,-0.7495242 -0.964231,-1.1242863 -1.733274,-1.1242863 z m 0,-1.1711311 c 1.225784,0 2.162689,0.484067 2.810715,1.4522027 0.655834,0.9681354 0.983751,2.3734933 0.983751,4.2160736 0,1.8425803 -0.327917,3.2557458 -0.983751,4.2316887 -0.648026,0.96813545 -1.584931,1.45220316 -2.810715,1.45220316 -1.217977,0 -2.154882,-0.48406771 -2.810716,-1.45220316 -0.648026,-0.9759429 -0.968136,-2.3891084 -0.968136,-4.2316887 0,-1.8425803 0.32011,-3.2479382 0.968136,-4.2160736 0.655834,-0.9681357 1.592739,-1.4522027 2.810716,-1.4522027 z m 0,0"
       style="fill:#2a3f5f;fill-opacity:1;fill-rule:nonzero;stroke:none"
       aria-label="100"
       transform="matrix(1.0006348,0,0,1.0006348,50.401604,65.29142)"
       clip-path="url(#clipPath82)" />
    <path
       id="path83"
       d="M 9.1970481,-7.9178648 H 6.6517888 L 5.9022646,-4.9822284 H 8.478754 Z M 7.8853807,-12.930308 6.9640906,-9.2763774 H 9.54058 l 0.92129,-3.6539306 h 1.405358 l -0.905675,3.6539306 h 2.748255 v 1.3585126 h -3.091787 l -0.718294,2.9356364 h 2.795101 v 1.3428975 H 9.5561951 L 8.6349049,-0.00101551 H 7.229547 L 8.1352221,-3.6393309 H 5.5587327 L 4.6530576,-0.00101551 H 3.2476997 L 4.1533748,-3.6393309 H 1.3895043 V -4.9822284 H 4.4812917 L 5.2152008,-7.9178648 H 2.3888699 v -1.3585126 h 3.1698628 l 0.9056751,-3.6539306 z m 22.5677053,3.0761723 v 9.85312019 H 28.829117 V -8.5893136 h -4.434685 v 8.58829809 H 22.770463 V -8.5893136 h -1.561509 v -1.2648221 h 1.561509 v -0.6714483 c 0,-1.069634 0.249841,-1.8621 0.749524,-2.373494 0.50749,-0.519201 1.288245,-0.780754 2.342263,-0.780754 h 1.623969 v 1.342897 h -1.545893 c -0.585566,0 -0.991558,0.121017 -1.217977,0.359147 -0.218611,0.230323 -0.327917,0.65193 -0.327917,1.264823 v 0.8588293 z m -1.623969,-3.8100813 h 1.623969 v 2.045576 h -1.623969 z m 13.198652,7.7138532 v 5.94934829 H 40.4038 V -5.8879035 c 0,-0.9369052 -0.183477,-1.6317766 -0.546528,-2.0924217 -0.366954,-0.4684526 -0.905675,-0.7026789 -1.623969,-0.7026789 -0.874445,0 -1.569316,0.2810715 -2.076806,0.8432147 -0.499683,0.5543356 -0.749525,1.3116673 -0.749525,2.2798028 v 5.55897109 H 33.783003 V -9.8541357 h 1.623969 v 1.5302786 c 0.38257,-0.581662 0.835408,-1.0188845 1.358513,-1.3116674 0.530913,-0.3005904 1.139901,-0.4528375 1.826965,-0.4528375 1.124286,0 1.975309,0.3552432 2.560875,1.061826 0.581662,0.6987751 0.874444,1.7254671 0.874444,3.0761722 z m 11.641048,0.6246035 v 0.7807543 h -7.432782 c 0.06246,1.1164788 0.394281,1.9675011 0.999366,2.5608744 0.601181,0.5855658 1.440492,0.8744449 2.514029,0.8744449 0.624604,0 1.225785,-0.078076 1.81135,-0.2342263 0.581662,-0.1561509 1.159421,-0.3825697 1.733275,-0.6870639 v 1.53027859 c -0.585566,0.2498414 -1.182843,0.44112623 -1.795735,0.56214315 -0.605085,0.1249207 -1.217977,0.18738105 -1.84258,0.18738105 -1.57322,0 -2.818524,-0.45283753 -3.732006,-1.35851259 -0.917387,-0.9134826 -1.374128,-2.1548821 -1.374128,-3.7163908 0,-1.6122578 0.429415,-2.892695 1.296052,-3.8413115 0.874445,-0.9447128 2.049481,-1.420973 3.52901,-1.420973 1.319475,0 2.365686,0.4294149 3.138633,1.2804372 0.769043,0.854926 1.155516,2.0143463 1.155516,3.4821645 z M 52.044848,-5.809828 c -0.01171,-0.8822525 -0.261553,-1.5849314 -0.749524,-2.1080368 -0.480164,-0.530913 -1.116479,-0.7963695 -1.905041,-0.7963695 -0.905675,0 -1.631776,0.2576489 -2.170497,0.7651393 -0.542624,0.5113941 -0.854926,1.2296881 -0.936905,2.1548821 z m 3.454838,0.1561508 h 4.746987 v 1.4365881 h -4.746987 z m 8.912311,-6.9955588 v 2.7951003 h 3.326014 v 1.2648221 h -3.326014 v 5.3403599 c 0,0.804177 0.109306,1.3194749 0.327917,1.5458937 0.218611,0.2303225 0.663641,0.3435319 1.342898,0.3435319 h 1.655199 v 1.35851259 h -1.655199 c -1.249207,0 -2.115845,-0.23422631 -2.592105,-0.70267893 C 63.022254,-1.1721471 62.788028,-2.0192656 62.788028,-3.2489537 v -5.3403599 h -1.186746 v -1.2648221 h 1.186746 v -2.7951003 z m 5.293515,8.7600637 v -5.9649634 h 1.623969 v 5.9025031 c 0,0.9369052 0.17567,1.6395842 0.530913,2.1080368 0.363051,0.4606451 0.909579,0.6870638 1.639584,0.6870638 0.874445,0 1.561509,-0.273264 2.061192,-0.8275996 0.50749,-0.5621432 0.765139,-1.3194749 0.765139,-2.2798028 v -5.5902013 h 1.623969 v 9.85312019 H 76.326309 V -1.515679 c -0.386473,0.60508465 -0.839311,1.05401841 -1.358513,1.34289753 -0.523105,0.2771678 -1.124286,0.42160736 -1.81135,0.42160736 -1.124286,0 -1.983116,-0.34743569 -2.576489,-1.04621086 C 69.994391,-1.5039677 69.705512,-2.5345634 69.705512,-3.8891723 Z m 4.075538,-6.1991897 z m 15.689259,4.1379982 v 5.94934829 H 87.84634 V -5.8879035 c 0,-0.9369052 -0.183478,-1.6317766 -0.546528,-2.0924217 -0.366955,-0.4684526 -0.905675,-0.7026789 -1.623969,-0.7026789 -0.874445,0 -1.569317,0.2810715 -2.076807,0.8432147 -0.499683,0.5543356 -0.749524,1.3116673 -0.749524,2.2798028 v 5.55897109 H 81.225543 V -9.8541357 h 1.623969 v 1.5302786 c 0.382569,-0.581662 0.835407,-1.0188845 1.358512,-1.3116674 0.530913,-0.3005904 1.139902,-0.4528375 1.826966,-0.4528375 1.124286,0 1.975308,0.3552432 2.560874,1.061826 0.581662,0.6987751 0.874445,1.7254671 0.874445,3.0761722 z m 3.224515,-3.9037719 h 1.608354 v 9.85312019 h -1.608354 z m 0,-3.8256963 h 1.608354 v 2.045576 h -1.608354 z m 13.183036,7.7294682 v 5.94934829 h -1.62397 V -5.8879035 c 0,-0.9369052 -0.18347,-1.6317766 -0.54653,-2.0924217 -0.36695,-0.4684526 -0.90567,-0.7026789 -1.62396,-0.7026789 -0.87445,0 -1.56932,0.2810715 -2.07681,0.8432147 -0.499684,0.5543356 -0.749525,1.3116673 -0.749525,2.2798028 v 5.55897109 H 97.633096 V -9.8541357 h 1.623969 v 1.5302786 c 0.38257,-0.581662 0.835405,-1.0188845 1.358515,-1.3116674 0.53091,-0.3005904 1.1399,-0.4528375 1.82696,-0.4528375 1.12429,0 1.97531,0.3552432 2.56088,1.061826 0.58166,0.6987751 0.87444,1.7254671 0.87444,3.0761722 z m 9.70868,0.905675 c 0,-1.163324 -0.24594,-2.068999 -0.73391,-2.7170252 -0.48016,-0.6441223 -1.15551,-0.9681354 -2.02996,-0.9681354 -0.87444,0 -1.5537,0.3240131 -2.02996,0.9681354 -0.48016,0.6480262 -0.71829,1.5537012 -0.71829,2.7170252 0,1.1672278 0.23813,2.0729029 0.71829,2.7170253 0.47626,0.6480261 1.15552,0.9681354 2.02996,0.9681354 0.87445,0 1.5498,-0.3201093 2.02996,-0.9681354 0.48797,-0.6441224 0.73391,-1.5497975 0.73391,-2.7170253 z m 1.60836,3.8256965 c 0,1.6747181 -0.37477,2.9200213 -1.12429,3.7320059 -0.74172,0.8197921 -1.87381,1.2335919 -3.40409,1.2335919 -0.57385,0 -1.11648,-0.042941 -1.62397,-0.1249207 -0.49968,-0.085883 -0.98375,-0.2147075 -1.4522,-0.3903772 V 1.6541838 c 0.46845,0.2576489 0.9291,0.44503 1.38974,0.5621431 0.46845,0.1249207 0.94081,0.1873811 1.42097,0.1873811 1.06183,0 1.8582,-0.2771678 2.38911,-0.8275997 0.53092,-0.5543356 0.79637,-1.39364653 0.79637,-2.51402905 V -1.7342902 c -0.34353,0.5855658 -0.77685,1.02278821 -1.29605,1.31166733 -0.52311,0.28107158 -1.14771,0.42160736 -1.87381,0.42160736 -1.21017,0 -2.18221,-0.4567413 -2.92002,-1.37412769 -0.73001,-0.9251939 -1.09306,-2.1470745 -1.09306,-3.6695456 0,-1.5185672 0.36305,-2.736544 1.09306,-3.6539304 0.73781,-0.9251939 1.70985,-1.3897428 2.92002,-1.3897428 0.7261,0 1.3507,0.1483433 1.87381,0.4372225 0.5192,0.2810715 0.95252,0.7143902 1.29605,1.2960522 v -1.4990484 h 1.60836 z m 10.64949,-11.4302437 v 2.7951003 h 3.32601 v 1.2648221 h -3.32601 v 5.3403599 c 0,0.804177 0.1093,1.3194749 0.32791,1.5458937 0.21861,0.2303225 0.66364,0.3435319 1.3429,0.3435319 h 1.6552 v 1.35851259 h -1.6552 c -1.24921,0 -2.11584,-0.23422631 -2.5921,-0.70267893 -0.46846,-0.46845266 -0.70268,-1.31557116 -0.70268,-2.54525926 v -5.3403599 h -1.18675 v -1.2648221 h 1.18675 v -2.7951003 z m 9.27536,3.9350017 c -0.86664,0 -1.5537,0.3396282 -2.06119,1.0149807 -0.49969,0.6792563 -0.74953,1.6044502 -0.74953,2.7794855 0,1.1789392 0.24984,2.1080369 0.74953,2.7951007 0.49968,0.6792563 1.18674,1.0149807 2.06119,1.0149807 0.86273,0 1.54589,-0.3357244 2.04557,-1.0149807 0.50749,-0.6870638 0.76514,-1.6161615 0.76514,-2.7951007 0,-1.163324 -0.25765,-2.0846141 -0.76514,-2.7638704 -0.49968,-0.6870639 -1.18284,-1.0305958 -2.04557,-1.0305958 z m 0,-1.3741277 c 1.40536,0 2.50622,0.4606451 3.3104,1.3741277 0.80027,0.9173864 1.20236,2.1822085 1.20236,3.7944662 0,1.6161616 -0.40209,2.8809837 -1.20236,3.7944663 -0.80418,0.91738638 -1.90504,1.37412769 -3.3104,1.37412769 -1.41707,0 -2.52574,-0.45674131 -3.32602,-1.37412769 -0.79246,-0.9134826 -1.18674,-2.1783047 -1.18674,-3.7944663 0,-1.6122577 0.39428,-2.8770798 1.18674,-3.7944662 0.80028,-0.9134826 1.90895,-1.3741277 3.32602,-1.3741277 z m 7.14,-3.59147 h 1.62397 v 8.0730001 l 4.82506,-4.2473038 h 2.06119 l -5.21544,4.6064508 5.43405,5.24666939 h -2.10804 l -4.99682,-4.80944689 v 4.80944689 h -1.62397 z m 18.26184,8.3540717 v 0.7807543 h -7.43278 c 0.0625,1.1164788 0.39428,1.9675011 0.99937,2.5608744 0.60118,0.5855658 1.44049,0.8744449 2.51402,0.8744449 0.62461,0 1.22579,-0.078076 1.81135,-0.2342263 0.58167,-0.1561509 1.15943,-0.3825697 1.73328,-0.6870639 v 1.53027859 c -0.58557,0.2498414 -1.18284,0.44112623 -1.79574,0.56214315 -0.60508,0.1249207 -1.21797,0.18738105 -1.84258,0.18738105 -1.57322,0 -2.81852,-0.45283753 -3.732,-1.35851259 -0.91739,-0.9134826 -1.37413,-2.1548821 -1.37413,-3.7163908 0,-1.6122578 0.42942,-2.892695 1.29605,-3.8413115 0.87445,-0.9447128 2.04948,-1.420973 3.52901,-1.420973 1.31948,0 2.36569,0.4294149 3.13864,1.2804372 0.76904,0.854926 1.15551,2.0143463 1.15551,3.4821645 z m -1.62397,-0.4840677 c -0.0117,-0.8822525 -0.26155,-1.5849314 -0.74952,-2.1080368 -0.48017,-0.530913 -1.11648,-0.7963695 -1.90504,-0.7963695 -0.90568,0 -1.63178,0.2576489 -2.1705,0.7651393 -0.54262,0.5113941 -0.85493,1.2296881 -0.9369,2.1548821 z m 12.46475,-0.1405358 v 5.94934829 H 171.7384 V -5.8879035 c 0,-0.9369052 -0.18348,-1.6317766 -0.54653,-2.0924217 -0.36696,-0.4684526 -0.90568,-0.7026789 -1.62397,-0.7026789 -0.87445,0 -1.56932,0.2810715 -2.07681,0.8432147 -0.49968,0.5543356 -0.74952,1.3116673 -0.74952,2.2798028 v 5.55897109 H 165.1176 V -9.8541357 h 1.62397 v 1.5302786 c 0.38257,-0.581662 0.83541,-1.0188845 1.35851,-1.3116674 0.53091,-0.3005904 1.1399,-0.4528375 1.82697,-0.4528375 1.12428,0 1.97531,0.3552432 2.56087,1.061826 0.58166,0.6987751 0.87445,1.7254671 0.87445,3.0761722 z m 9.50178,-3.6070852 v 1.5302785 c -0.46065,-0.23813 -0.93691,-0.4137998 -1.43659,-0.5309129 -0.49188,-0.1132094 -0.99937,-0.171766 -1.53028,-0.171766 -0.80418,0 -1.40536,0.1249207 -1.81135,0.3747621 -0.39818,0.2420339 -0.59337,0.6089884 -0.59337,1.1086712 0,0.3747621 0.14053,0.6714488 0.4216,0.89006 0.28888,0.2108037 0.87445,0.4059923 1.74889,0.5933733 l 0.54653,0.1249207 c 1.15552,0.2498414 1.97141,0.6011809 2.45157,1.0462109 0.47626,0.4489337 0.71829,1.0735372 0.71829,1.8738105 0,0.9173864 -0.36695,1.6395842 -1.09305,2.17049713 -0.7183,0.53091298 -1.70985,0.79636946 -2.96687,0.79636946 -0.53091,0 -1.08525,-0.0546528 -1.6552,-0.15615087 -0.57385,-0.09369053 -1.17894,-0.24203386 -1.81135,-0.45283754 V -2.0309769 c 0.60118,0.3123018 1.19065,0.5465281 1.76451,0.702679 0.58166,0.1561508 1.15942,0.2342263 1.73327,0.2342263 0.75733,0 1.3429,-0.1288245 1.74889,-0.3903772 0.4138,-0.257649 0.62461,-0.6285073 0.62461,-1.1086712 0,-0.4372225 -0.15225,-0.7690431 -0.45284,-0.9993656 -0.29278,-0.2381301 -0.93691,-0.4684526 -1.93627,-0.6870639 l -0.56215,-0.1405358 c -0.99936,-0.2068999 -1.72546,-0.5309129 -2.17049,-0.9681354 -0.44894,-0.4372224 -0.67145,-1.0344995 -0.67145,-1.795735 0,-0.925194 0.32791,-1.6395842 0.98375,-2.139267 0.65583,-0.5074904 1.58493,-0.7651393 2.7951,-0.7651393 0.60118,0 1.16332,0.04684 1.68643,0.1405358 0.53091,0.085883 1.01888,0.2147074 1.46782,0.3903772 z m 0,0"
       style="fill:#2a3f5f;fill-opacity:1;fill-rule:nonzero;stroke:none"
       aria-label="# ne-tuning tokens"
       transform="matrix(1.0006348,0,0,1.0006348,170.4768,367.33305)"
       clip-path="url(#clipPath84)" />
    <path
       id="path85"
       d="m 3.5434782,-6.2616649 v 4.8094469 h 2.841946 c 0.9564241,0 1.6630068,-0.1951886 2.1236519,-0.5933733 0.4567413,-0.394281 0.6870638,-1.0032694 0.6870638,-1.8269653 0,-0.8197921 -0.2303225,-1.4248767 -0.6870638,-1.8113501 C 8.048431,-6.0664764 7.3418483,-6.2616649 6.3854242,-6.2616649 Z m 0,-5.4028201 v 3.9506169 h 2.6233347 c 0.8744449,0 1.5185673,-0.1600546 1.9362709,-0.4840677 0.4255111,-0.3201093 0.6402186,-0.8158883 0.6402186,-1.4834333 0,-0.6636409 -0.2147075,-1.1594199 -0.6402186,-1.4834329 -0.4177036,-0.331821 -1.061826,-0.499683 -1.9362709,-0.499683 z m -1.7801199,-1.467818 h 4.5439904 c 1.3507051,0 2.3930122,0.288879 3.1230175,0.858829 0.7261018,0.562144 1.0930558,1.358513 1.0930558,2.3891088 0,0.804177 -0.187381,1.4443956 -0.5621428,1.9206557 -0.3747621,0.480164 -0.9212902,0.7768506 -1.6395842,0.89006 0.8627336,0.1873811 1.5341823,0.5777582 2.014346,1.1711316 0.487972,0.5933733 0.733909,1.3389937 0.733909,2.2329575 0,1.1672278 -0.402088,2.0729028 -1.2023613,2.71702519 C 9.075123,-0.3162204 7.9469329,-1.4878133e-5 6.4791147,-1.4878133e-5 H 1.7633583 Z m 12.3515337,0 h 1.78012 v 11.6332397 h 6.386571 V -1.4878133e-5 h -8.166691 z m 10.024887,0 h 8.307226 v 1.499048 h -6.527106 v 3.8881567 h 6.246035 v 1.4990484 h -6.246035 v 4.7469866 h 6.683257 V -1.4878133e-5 h -8.463377 z m 11.172595,0 h 1.78012 v 7.9793093 c 0,1.4053578 0.253745,2.4203385 0.765139,3.044942 0.50749,0.616796 1.33509,0.9212902 2.482799,0.9212902 1.132094,0 1.95579,-0.3044942 2.467184,-0.9212902 0.50749,-0.6246035 0.765139,-1.6395842 0.765139,-3.044942 v -7.9793093 h 1.795735 v 8.1979205 c 0,1.7176596 -0.429415,3.0137119 -1.280437,3.8881568 -0.843215,0.86663732 -2.092422,1.29605222 -3.747621,1.29605222 -1.655199,0 -2.912214,-0.4294149 -3.763236,-1.29605222 -0.843215,-0.8744449 -1.264822,-2.1704972 -1.264822,-3.8881568 z m 25.312056,3.5758546 v 1.5302786 c -0.460645,-0.2381301 -0.936905,-0.4137998 -1.436588,-0.530913 -0.491875,-0.1132094 -0.999365,-0.171766 -1.530278,-0.171766 -0.804177,0 -1.405358,0.1249207 -1.81135,0.3747621 -0.398185,0.2420339 -0.593374,0.6089884 -0.593374,1.1086712 0,0.3747621 0.140536,0.6714488 0.421608,0.89006 0.288879,0.2108037 0.874445,0.4059923 1.748889,0.5933734 l 0.546529,0.1249207 c 1.155516,0.2498414 1.971404,0.6011808 2.451568,1.0462108 0.47626,0.4489338 0.718294,1.0735373 0.718294,1.8738105 0,0.9173864 -0.366954,1.6395842 -1.093056,2.17049716 -0.718294,0.53091297 -1.709852,0.79636946 -2.966866,0.79636946 -0.530913,0 -1.085249,-0.0546528 -1.6552,-0.15615087 -0.573854,-0.09369052813 -1.178939,-0.24203386 -1.81135,-0.45283754 V -2.0299762 c 0.601181,0.3123017 1.190651,0.546528 1.764505,0.7026789 0.581662,0.1561509 1.15942,0.2342263 1.733275,0.2342263 0.757331,0 1.342897,-0.1288245 1.74889,-0.3903772 0.413799,-0.2576489 0.624603,-0.6285073 0.624603,-1.1086712 0,-0.4372224 -0.152247,-0.7690431 -0.452838,-0.9993656 -0.292782,-0.2381301 -0.936905,-0.4684526 -1.93627,-0.6870638 L 56.533277,-4.4190846 C 55.533912,-4.6259845 54.80781,-4.9499976 54.36278,-5.38722 c -0.448933,-0.4372225 -0.671448,-1.0344996 -0.671448,-1.7957351 0,-0.9251939 0.327916,-1.6395842 0.98375,-2.139267 0.655834,-0.5074903 1.584931,-0.7651389 2.795101,-0.7651389 0.601181,0 1.163324,0.04684 1.686429,0.1405354 0.530913,0.085883 1.018885,0.2147075 1.467818,0.3903772 z m 10.177134,0.093691 v 1.4990484 c -0.448934,-0.2498414 -0.905675,-0.4372224 -1.374128,-0.5621431 -0.460645,-0.1249207 -0.92129,-0.1873811 -1.389743,-0.1873811 -1.054018,0 -1.869907,0.3357244 -2.451569,0.9993656 -0.573854,0.667545 -0.858829,1.6005465 -0.858829,2.7951007 0,1.2101693 0.284975,2.1470745 0.858829,2.8107157 0.581662,0.667545 1.397551,0.9993656 2.451569,0.9993656 0.468453,0 0.929098,-0.06246 1.389743,-0.187381 0.468453,-0.1327283 0.925194,-0.3279169 1.374128,-0.5777583 v 1.49904842 c -0.448934,0.21080368 -0.917387,0.36695456 -1.405358,0.46845263 -0.480164,0.10149806 -0.991558,0.15615087 -1.530279,0.15615087 -1.491241,0 -2.67018,-0.46064508 -3.544625,-1.38974282 -0.866637,-0.9369052 -1.296052,-2.1939197 -1.296052,-3.7788511 0,-1.6005465 0.437223,-2.8614648 1.311667,-3.7788512 0.882253,-0.9251939 2.096326,-1.3897419 3.638316,-1.3897419 0.487971,0 0.972039,0.05465 1.452203,0.15615 0.47626,0.1054018 0.936905,0.2615527 1.374128,0.4684526 z m 6.632508,0.7495242 c -0.866637,0 -1.553701,0.3396282 -2.061192,1.0149807 -0.499682,0.6792563 -0.749524,1.6044502 -0.749524,2.7794856 0,1.1789391 0.249842,2.1080368 0.749524,2.7951006 0.499683,0.6792563 1.186747,1.0149807 2.061192,1.0149807 0.862734,0 1.545894,-0.3357244 2.045576,-1.0149807 0.507491,-0.6870638 0.76514,-1.6161615 0.76514,-2.7951006 0,-1.163324 -0.257649,-2.0846142 -0.76514,-2.7638705 -0.499682,-0.6870638 -1.182842,-1.0305958 -2.045576,-1.0305958 z m 0,-1.3741268 c 1.405358,0 2.506222,0.4606442 3.310399,1.3741268 0.800273,0.9173864 1.202361,2.1822085 1.202361,3.7944663 0,1.6161615 -0.402088,2.8809836 -1.202361,3.7944662 -0.804177,0.91738641 -1.905041,1.37412772 -3.310399,1.37412772 -1.417069,0 -2.52574,-0.45674131 -3.326014,-1.37412772 -0.792465,-0.9134826 -1.186746,-2.1783047 -1.186746,-3.7944662 0,-1.6122578 0.394281,-2.8770799 1.186746,-3.7944663 0.800274,-0.9134826 1.908945,-1.3741268 3.326014,-1.3741268 z m 12.901966,1.7488889 c -0.179573,-0.101498 -0.374762,-0.1756697 -0.593373,-0.2186112 -0.218612,-0.050749 -0.452838,-0.078075 -0.702679,-0.078075 -0.917387,0 -1.620066,0.2966866 -2.108037,0.8900599 C 86.440074,-7.151724 86.19804,-6.296798 86.19804,-5.184223 V -1.4878133e-5 H 84.574071 V -9.8531351 h 1.623969 v 1.5302786 c 0.343532,-0.5933733 0.784658,-1.0344995 1.327282,-1.3272824 0.538721,-0.2888791 1.202362,-0.4372221 1.983116,-0.4372221 0.11321,0 0.23813,0.01171 0.374762,0.03123 0.132729,0.01171 0.281072,0.03123 0.437223,0.06246 z m 9.720392,3.0137119 v 0.7807544 h -7.432782 c 0.06246,1.1164787 0.394281,1.967501 0.999366,2.5608743 0.601181,0.5855658 1.440492,0.8744449 2.514029,0.8744449 0.624604,0 1.225784,-0.078075 1.81135,-0.2342263 0.581662,-0.1561509 1.15942,-0.3825696 1.733275,-0.6870638 v 1.53027852 c -0.585566,0.2498414 -1.182843,0.44112622 -1.795735,0.56214315 -0.605085,0.1249207 -1.217977,0.18738105 -1.842581,0.18738105 -1.57322,0 -2.818523,-0.45283753 -3.732005,-1.35851262 -0.917387,-0.9134826 -1.374128,-2.1548821 -1.374128,-3.7163908 0,-1.6122578 0.429415,-2.8926949 1.296052,-3.8413115 0.874445,-0.9447128 2.04948,-1.4209721 3.52901,-1.4209721 1.319475,0 2.365686,0.429414 3.138632,1.2804363 0.769044,0.854926 1.155517,2.0143463 1.155517,3.4821645 z m -1.623969,-0.4840677 c -0.01171,-0.8822524 -0.261553,-1.5849314 -0.749524,-2.1080368 -0.480164,-0.530913 -1.116479,-0.7963695 -1.905041,-0.7963695 -0.905675,0 -1.631777,0.257649 -2.170497,0.7651393 -0.542624,0.5113941 -0.854926,1.2296881 -0.936905,2.1548821 z m 0,0"
       style="fill:#2a3f5f;fill-opacity:1;fill-rule:nonzero;stroke:none"
       aria-label="BLEU score"
       transform="matrix(0,-1.0006348,1.0006348,0,29.57814,240.65901)"
       clip-path="url(#clipPath86)" />
    <path
       id="path87"
       d="m 6.4960649,-6.2933733 c 0.7495242,0.1678622 1.33509,0.5074904 1.7645049,1.0149807 0.4255112,0.5113941 0.6402186,1.1399014 0.6402186,1.8894256 0,1.1477089 -0.3981847,2.0377689 -1.1867466,2.67017994 -0.7924657,0.63631482 -1.916752,0.95252034 -3.3728589,0.95252034 -0.4918753,0 -0.9954618,-0.0546528 -1.5146635,-0.15615088 C 2.303414,-0.01220435 1.7685972,-0.16054768 1.2181654,-0.35964004 V -1.8743035 c 0.4372224,0.2498414 0.9134826,0.44503 1.436588,0.5777582 0.5192017,0.1249207 1.0657298,0.1873811 1.6395842,0.1873811 0.9876543,0 1.7371785,-0.1912849 2.2485726,-0.5777583 0.5192017,-0.3942809 0.7807544,-0.9603279 0.7807544,-1.7020445 0,-0.6870639 -0.2420339,-1.2218806 -0.718294,-1.608354 C 6.1252066,-5.391602 5.4537579,-5.5906943 4.5910243,-5.5906943 H 3.2325117 v -1.2960523 h 1.4209729 c 0.7807544,0 1.3741277,-0.1483433 1.78012,-0.4528375 0.4137998,-0.3123018 0.6246035,-0.7651393 0.6246035,-1.3585126 0,-0.5933734 -0.2147075,-1.0501147 -0.6402186,-1.3741273 -0.4294149,-0.32011 -1.0384033,-0.484068 -1.8269652,-0.484068 -0.4294149,0 -0.89006,0.04684 -1.3897428,0.140536 -0.4918753,0.09369 -1.0305958,0.242033 -1.6239691,0.4372221 v -1.4053581 c 0.5933733,-0.163958 1.1477089,-0.288879 1.6708144,-0.374762 0.5309129,-0.08198 1.0227882,-0.124921 1.4834333,-0.124921 1.1945542,0 2.1431707,0.277168 2.8419459,0.8276 0.7065827,0.542624 1.0618259,1.2765335 1.0618259,2.2017274 0,0.6480261 -0.187381,1.1945542 -0.5621431,1.6395842 -0.3747621,0.4489337 -0.9017713,0.7573317 -1.5771239,0.9212901 z m 6.8394081,0.718294 v 4.278534 h 2.529644 c 0.843215,0 1.467819,-0.1756697 1.873811,-0.530913 0.4138,-0.3513394 0.624603,-0.8900599 0.624603,-1.608354 0,-0.7261015 -0.210803,-1.2648221 -0.624603,-1.608354 -0.405992,-0.3513394 -1.030596,-0.530913 -1.873811,-0.530913 z m 0,-4.7938317 v 3.5133946 h 2.326648 c 0.769043,0 1.342898,-0.1405358 1.71766,-0.4216074 0.38257,-0.2888791 0.577758,-0.7378129 0.577758,-1.3428975 0,-0.581662 -0.195188,-1.0188845 -0.577758,-1.3116673 -0.374762,-0.2888794 -0.948617,-0.4372224 -1.71766,-0.4372224 z m -1.577124,-1.296052 h 4.028693 c 1.194554,0 2.123652,0.249841 2.779486,0.749524 0.655833,0.499683 0.98375,1.2101691 0.98375,2.1236517 0,0.7182941 -0.167862,1.2921485 -0.499683,1.7176597 -0.335724,0.4177035 -0.827599,0.6792563 -1.483433,0.7807543 0.780754,0.1678622 1.381935,0.5152979 1.81135,1.0462109 0.437223,0.530913 0.655834,1.1945542 0.655834,1.9831161 0,1.0423071 -0.359147,1.8503879 -1.077441,2.42033855 -0.710487,0.56214314 -1.713756,0.84321471709 -3.013712,0.84321471709 h -4.184844 z m 0,0"
       style="fill:#f3ad6a;fill-opacity:1;fill-rule:nonzero;stroke:none"
       aria-label="3B"
       transform="matrix(1.0006348,0,0,1.0006348,92.058405,130.08252)"
       clip-path="url(#clipPath88)" />
    <path
       id="path89"
       d="M 1.3118559,-11.665259 H 8.822713 v 0.671449 L 4.5754092,-7.8834592e-4 H 2.935825 L 6.9176723,-10.337976 H 1.3118559 Z m 12.0236171,6.0898844 v 4.278534 h 2.529644 c 0.843215,0 1.467819,-0.1756697 1.873811,-0.530913 0.4138,-0.3513394 0.624603,-0.89006 0.624603,-1.608354 0,-0.7261015 -0.210803,-1.2648221 -0.624603,-1.608354 -0.405992,-0.3513395 -1.030596,-0.530913 -1.873811,-0.530913 z m 0,-4.7938314 v 3.5133943 h 2.326648 c 0.769043,0 1.342898,-0.1405358 1.71766,-0.4216074 0.38257,-0.2888791 0.577758,-0.7378129 0.577758,-1.3428975 0,-0.581662 -0.195188,-1.0188845 -0.577758,-1.3116674 -0.374762,-0.288879 -0.948617,-0.437222 -1.71766,-0.437222 z m -1.577124,-1.296053 h 4.028693 c 1.194554,0 2.123652,0.249842 2.779486,0.749525 0.655833,0.499682 0.98375,1.2101688 0.98375,2.1236514 0,0.718294 -0.167862,1.2921485 -0.499683,1.7176596 -0.335724,0.4177036 -0.827599,0.6792563 -1.483433,0.7807544 0.780754,0.1678622 1.381935,0.5152979 1.81135,1.0462109 0.437223,0.5309129 0.655834,1.1945542 0.655834,1.9831161 0,1.0423071 -0.359147,1.8503878 -1.077441,2.42033853 -0.710487,0.56214315 -1.713756,0.84321472408 -3.013712,0.84321472408 h -4.184844 z m 0,0"
       style="fill:#f97b57;fill-opacity:1;fill-rule:nonzero;stroke:none"
       aria-label="7B"
       transform="matrix(1.0006348,0,0,1.0006348,92.058405,112.0711)"
       clip-path="url(#clipPath90)" />
    <path
       id="path91"
       d="M 1.9818422,-1.3279202 H 4.5583316 V -10.22852 l -2.7951007,0.5621431 v -1.4365881 l 2.7794856,-0.562143 H 6.1198403 V -1.3279202 H 8.7119448 V -6.3778399e-4 H 1.9818422 Z M 16.222802,-10.29098 12.240955,-4.0605605 h 3.981847 z m -0.405992,-1.374128 h 1.983116 v 7.6045475 h 1.670814 v 1.3116673 H 17.799926 V -6.3778399e-4 H 16.222802 V -2.7488932 h -5.262285 v -1.5302785 z m 7.698238,6.089884 v 4.278534 h 2.529644 c 0.843215,0 1.467818,-0.1756698 1.87381,-0.530913 0.4138,-0.3513395 0.624604,-0.89006 0.624604,-1.608354 0,-0.7261016 -0.210804,-1.2648221 -0.624604,-1.608354 -0.405992,-0.3513395 -1.030595,-0.530913 -1.87381,-0.530913 z m 0,-4.793832 v 3.5133948 h 2.326648 c 0.769043,0 1.342897,-0.1405358 1.717659,-0.4216073 0.38257,-0.2888792 0.577759,-0.7378129 0.577759,-1.3428976 0,-0.581662 -0.195189,-1.0188844 -0.577759,-1.3116673 -0.374762,-0.2888796 -0.948616,-0.4372226 -1.717659,-0.4372226 z m -1.577124,-1.296052 h 4.028692 c 1.194555,0 2.123652,0.249841 2.779486,0.749524 0.655834,0.499683 0.983751,1.2101694 0.983751,2.123652 0,0.718294 -0.167863,1.2921485 -0.499683,1.7176596 -0.335725,0.4177036 -0.8276,0.6792563 -1.483434,0.7807544 0.780755,0.1678622 1.381936,0.5152979 1.811351,1.0462108 0.437222,0.530913 0.655833,1.1945542 0.655833,1.9831161 0,1.0423071 -0.359147,1.8503879 -1.077441,2.42033859 -0.710486,0.56214315 -1.713756,0.84321472601 -3.013712,0.84321472601 h -4.184843 z m 0,0"
       style="fill:#ee4d5a;fill-opacity:1;fill-rule:nonzero;stroke:none"
       aria-label="14B"
       transform="matrix(1.0006348,0,0,1.0006348,82.055962,81.051419)"
       clip-path="url(#clipPath92)" />
  </g>
</svg>
